<svg 
xmlns="http://www.w3.org/2000/svg" viewBox="0 0 107.32 102.13"><defs><style>.cls-1-afiliados{fill:#fabb39;}.cls-2-afiliados{fill:#fff;stroke:#fff;stroke-miterlimit:10;stroke-width:0.77px;}</style></defs><title>Asset 6</title><g id="Layer_2" data-name="Layer 2"><g id="Capa_1" data-name="Capa 1"><path class="cls-1-afiliados" d="M53.66,0c1.76,0,3.51.08,5.26.25s3.48.4,5.21.73,3.42.73,5.11,1.22,3.33,1,5,1.69S77.4,5.24,79,6,82,7.68,83.47,8.61s2.87,1.92,4.23,3A50.12,50.12,0,0,1,91.6,15q1.86,1.77,3.54,3.71t3.14,4Q99.74,24.79,101,27a50.2,50.2,0,0,1,2.25,4.53A48,48,0,0,1,105,36.24c.51,1.6.93,3.22,1.28,4.86a48.86,48.86,0,0,1,0,19.93c-.35,1.64-.77,3.26-1.28,4.86a48,48,0,0,1-1.78,4.72A50.2,50.2,0,0,1,101,75.14c-.83,1.47-1.73,2.91-2.7,4.3s-2,2.73-3.14,4S92.84,86,91.6,87.18s-2.54,2.3-3.9,3.36-2.77,2.06-4.23,3-3,1.78-4.52,2.57-3.13,1.51-4.76,2.15-3.27,1.2-5,1.68-3.39.9-5.11,1.22-3.46.57-5.21.74-3.5.24-5.26.24-3.51-.08-5.26-.24-3.49-.41-5.21-.74-3.43-.73-5.11-1.22-3.33-1-5-1.68-3.21-1.36-4.76-2.15-3.05-1.64-4.51-2.57-2.87-1.93-4.23-3-2.66-2.18-3.9-3.36a49.62,49.62,0,0,1-3.54-3.72q-1.66-1.93-3.14-4a50.71,50.71,0,0,1-2.7-4.3Q5.1,72.92,4.08,70.61T2.31,65.89a48.54,48.54,0,0,1-2-9.82A48.86,48.86,0,0,1,1,41.1a48.26,48.26,0,0,1,1.28-4.86q.76-2.4,1.77-4.72T6.34,27A50.54,50.54,0,0,1,9,22.7q1.47-2.1,3.14-4A49.49,49.49,0,0,1,15.72,15a50.12,50.12,0,0,1,3.9-3.37q2-1.59,4.23-3T28.36,6q2.33-1.18,4.76-2.14c1.63-.64,3.28-1.21,5-1.69S41.47,1.31,43.19,1,46.65.41,48.4.25,51.9,0,53.66,0Z"/><path class="cls-2-afiliados" d="M43.66,53.78a18.68,18.68,0,1,1,12.67,2.69c-1.64.24-3.32.2-5,.32-10.66.8-20.18,8.86-22.49,19.13a40.83,40.83,0,0,0-.72,5.64,2.26,2.26,0,0,0,2.54,2.53H53.46a2.3,2.3,0,0,1,2.38,3.05,2.34,2.34,0,0,1-2.32,1.51H30.74a6.92,6.92,0,0,1-7.28-7.2A29.75,29.75,0,0,1,43,54.07ZM39.72,38.39A13.94,13.94,0,1,0,53.65,24.68,13.86,13.86,0,0,0,39.72,38.39Z"/><path class="cls-2-afiliados" d="M73.46,69.24h7.63a4.17,4.17,0,0,1,.94.06,2.27,2.27,0,0,1-.46,4.5c-2.4,0-4.79,0-7.19,0h-1v.77c0,2.33,0,4.67,0,7a2.33,2.33,0,1,1-4.64,0c0-2.3,0-4.61,0-6.92v-.84H60.88a2.3,2.3,0,1,1,0-4.57h7.91v-.81c0-2.33,0-4.66,0-7a2.33,2.33,0,1,1,4.64,0q0,3.78,0,7.56A2,2,0,0,0,73.46,69.24Z"/></g></g></svg>