<svg xmlns="http://www.w3.org/2000/svg" viewBox="0 0 41.35 40.66"><defs><style>.cls-1{fill:#173458;stroke:#173458;stroke-miterlimit:10;stroke-width:0.99px;}</style></defs><title>Asset 4</title><g id="Layer_2" data-name="Layer 2"><g id="Capa_1" data-name="Capa 1"><path class="cls-1" d="M40.85,20.54a1.74,1.74,0,0,1-.46.32.54.54,0,0,1-.71-.33.58.58,0,0,1,.25-.77.59.59,0,0,1,.78.13l.14.18Z"/><path class="cls-1" d="M19.41,40.16c-.18-.16-.43-.3-.53-.5a.53.53,0,0,1,.38-.7.61.61,0,0,1,.75.33.59.59,0,0,1-.27.76l-.25.11Z"/><path class="cls-1" d="M10.94,29.18c-.63-.93-1.34-1.82-1.88-2.8A12.38,12.38,0,0,1,7.72,18c.09-.48.34-.7.72-.64s.57.37.47.9a10.84,10.84,0,0,0,.34,5.48,11.48,11.48,0,0,0,9.83,8.22,11.74,11.74,0,0,0,3.7-23.19A12,12,0,0,0,9.93,15.16c-.09.16-.2.39-.35.43a.91.91,0,0,1-.69-.05.51.51,0,0,1-.12-.76c.59-.94,1.2-1.87,1.81-2.8l.2-.24L8.59,9.59c-2.44,1.07-4.48.63-5.67-1.24A3.93,3.93,0,0,1,3.7,3.19,4.13,4.13,0,0,1,9,3.19a4,4,0,0,1,.58,5.46l2.15,2.12a13.09,13.09,0,0,1,8.94-3.41,13.11,13.11,0,0,1,8.92,3.42l2.16-2.1a4,4,0,0,1,.7-5.59,4.12,4.12,0,0,1,5.34.23,4,4,0,0,1,.54,5.17,4.12,4.12,0,0,1-5.56,1.1l-2.15,2.13q6.63,8.76-.23,17.44l2.1,2.07a4.1,4.1,0,0,1,3.44-.72,4,4,0,0,1,2.34,1.54,4,4,0,0,1-.39,5.15,4.14,4.14,0,0,1-5.23.48,4,4,0,0,1-1.09-5.49L29.37,30A13.35,13.35,0,0,1,12,30c-.74.72-1.46,1.43-2.21,2.18a4,4,0,0,1-1.34,5.61A4.12,4.12,0,0,1,3.25,37a4,4,0,0,1,0-5.17,4.15,4.15,0,0,1,5.62-.6Zm21.21-23a2.85,2.85,0,0,0,5.69,0,2.85,2.85,0,0,0-5.69,0Zm0,28.17A2.85,2.85,0,1,0,35,31.61,2.83,2.83,0,0,0,32.15,34.39Zm-23,0a2.8,2.8,0,0,0-2.91-2.74A2.82,2.82,0,0,0,3.5,34.45a2.85,2.85,0,0,0,5.69-.1Zm0-28.15a2.85,2.85,0,0,0-5.69,0A2.83,2.83,0,0,0,6.38,9,2.81,2.81,0,0,0,9.19,6.2Z"/><path class="cls-1" d="M23.83,20.66a7.63,7.63,0,0,1,2.66,2.13A7,7,0,0,1,27.8,25.5a2.28,2.28,0,0,1-1.1,2.59,12,12,0,0,1-5.95,1.54c-.42,0-.69-.24-.69-.58a.61.61,0,0,1,.68-.6,11.63,11.63,0,0,0,5.14-1.28,1.17,1.17,0,0,0,.7-1.53,5.94,5.94,0,0,0-3.51-4,.8.8,0,0,0-.57,0,4.34,4.34,0,0,1-3.66,0,.78.78,0,0,0-.54,0,5.93,5.93,0,0,0-3.58,4.19,1.05,1.05,0,0,0,.62,1.25c.76.35,1.55.63,2.32.94.11,0,.23.06.34.11a.59.59,0,0,1,.37.72.6.6,0,0,1-.72.41A10.53,10.53,0,0,1,14.5,28a2.26,2.26,0,0,1-1-2.48,7.17,7.17,0,0,1,3.61-4.67l.33-.18-.12-.19a4.08,4.08,0,0,1-.88-2.59c0-1.37,0-2.74,0-4.11A2.67,2.67,0,0,1,19.32,11h2.76a2.66,2.66,0,0,1,2.78,2.74c0,1.16,0,2.32,0,3.48A4.65,4.65,0,0,1,23.83,20.66Zm-.13-3.18h0c0-.22,0-.44,0-.66a.43.43,0,0,0-.13-.29,3.38,3.38,0,0,0-3.13-.68c-.52.15-1,.33-1.53.5s-.93.19-1.12.47-.06.8,0,1.21a3,3,0,0,0,5.85.68A9.68,9.68,0,0,0,23.7,17.48Zm-6-2,.43-.13,1.87-.6a4.32,4.32,0,0,1,3.29.25l.36.17c0-.55,0-1,0-1.5a1.47,1.47,0,0,0-1.49-1.45q-1.5,0-3,0a1.44,1.44,0,0,0-1.46,1.35C17.66,14.15,17.7,14.77,17.7,15.44Z"/><path class="cls-1" d="M37.82,10.4a.61.61,0,0,1,.59.64.62.62,0,0,1-.62.57.6.6,0,0,1-.58-.64A.59.59,0,0,1,37.82,10.4Z"/><path class="cls-1" d="M20,1.09a.62.62,0,0,1-1.23,0,.62.62,0,0,1,1.23,0Z"/><path class="cls-1" d="M24.3.79a.61.61,0,0,1,.62.61.62.62,0,0,1-.6.59.63.63,0,0,1-.62-.62A.6.6,0,0,1,24.3.79Z"/><path class="cls-1" d="M12.93,2.87a.61.61,0,0,1-.61.61.59.59,0,0,1-.62-.56.61.61,0,0,1,.61-.62A.61.61,0,0,1,12.93,2.87Z"/><path class="cls-1" d="M2.47,13.83a.6.6,0,0,1-.61-.58.62.62,0,0,1,.58-.62.6.6,0,1,1,0,1.2Z"/><path class="cls-1" d="M27.33,38.62a.61.61,0,1,1-.6-.6A.62.62,0,0,1,27.33,38.62Z"/><path class="cls-1" d="M17,39.83a.61.61,0,0,1,0-1.21.61.61,0,0,1,0,1.21Z"/><path class="cls-1" d="M38.85,28a.59.59,0,1,1,.06-1.18A.59.59,0,1,1,38.85,28Z"/><path class="cls-1" d="M39.46,13.2a.6.6,0,0,1-.59.59.62.62,0,0,1-.62-.61.61.61,0,1,1,1.21,0Z"/><path class="cls-1" d="M1.7,24.51a.61.61,0,0,1,.62.58.6.6,0,1,1-1.2,0A.59.59,0,0,1,1.7,24.51Z"/><path class="cls-1" d="M1.25,18.52a.61.61,0,1,1,0-1.21.59.59,0,0,1,.57.62A.61.61,0,0,1,1.25,18.52Z"/><path class="cls-1" d="M25,39.23a.61.61,0,1,1-.59-.61A.61.61,0,0,1,25,39.23Z"/><path class="cls-1" d="M22.48,1.1a.61.61,0,1,1-1.21,0A.58.58,0,0,1,21.89.5.6.6,0,0,1,22.48,1.1Z"/><path class="cls-1" d="M17.59,1.41a.61.61,0,0,1-1.22,0,.61.61,0,0,1,1.22,0Z"/><path class="cls-1" d="M29.58,2.88a.6.6,0,1,1-1.2,0,.6.6,0,0,1,1.2,0Z"/><path class="cls-1" d="M3.09,27.43a.6.6,0,0,1-.61.57.6.6,0,1,1,0-1.19A.61.61,0,0,1,3.09,27.43Z"/><path class="cls-1" d="M14.61,1.4a.63.63,0,0,1,.6.6A.62.62,0,0,1,14,2,.63.63,0,0,1,14.61,1.4Z"/><path class="cls-1" d="M14.62,38a.6.6,0,1,1,0,1.2.63.63,0,0,1-.6-.6A.58.58,0,0,1,14.62,38Z"/><path class="cls-1" d="M40.69,22.71a.6.6,0,0,1-1.2.05.58.58,0,0,1,.59-.63A.59.59,0,0,1,40.69,22.71Z"/><path class="cls-1" d="M1.7,16.13a.58.58,0,0,1-.59-.59.59.59,0,0,1,.59-.6.6.6,0,1,1,0,1.19Z"/><path class="cls-1" d="M40.23,25.1a.6.6,0,0,1-1.2,0,.6.6,0,1,1,1.2,0Z"/><path class="cls-1" d="M39.6,16.08a.59.59,0,0,1-.58-.6.61.61,0,0,1,.6-.6.6.6,0,0,1,.6.63A.59.59,0,0,1,39.6,16.08Z"/><path class="cls-1" d="M3.54,29a.61.61,0,0,1,.59.61.6.6,0,1,1-1.2,0A.6.6,0,0,1,3.54,29Z"/><path class="cls-1" d="M29.61,37.73a.58.58,0,0,1-.59.59.59.59,0,0,1-.62-.57.6.6,0,0,1,.61-.61A.59.59,0,0,1,29.61,37.73Z"/><path class="cls-1" d="M1.12,20.93a.62.62,0,0,1-.62-.58.6.6,0,0,1,.61-.62.58.58,0,0,1,.59.59A.59.59,0,0,1,1.12,20.93Z"/><path class="cls-1" d="M38.42,29.58a.6.6,0,1,1-1.2,0,.6.6,0,0,1,.61-.58A.58.58,0,0,1,38.42,29.58Z"/><path class="cls-1" d="M26.7,1.39a.59.59,0,1,1,0,1.18A.58.58,0,0,1,26.09,2,.59.59,0,0,1,26.7,1.39Z"/><path class="cls-1" d="M40.69,17.87a.61.61,0,0,1-1.21,0,.59.59,0,0,1,.62-.57A.6.6,0,0,1,40.69,17.87Z"/><path class="cls-1" d="M12.35,38.32a.58.58,0,0,1-.61-.57.61.61,0,1,1,1.21,0A.58.58,0,0,1,12.35,38.32Z"/><path class="cls-1" d="M21.91,38.92a.61.61,0,0,1,.6.59.58.58,0,0,1-.59.6.59.59,0,0,1-.62-.6A.61.61,0,0,1,21.91,38.92Z"/><path class="cls-1" d="M1.86,22.75a.59.59,0,0,1-.61.58.6.6,0,0,1-.6-.63.59.59,0,0,1,.63-.55A.58.58,0,0,1,1.86,22.75Z"/><path class="cls-1" d="M3.49,11.64a.58.58,0,0,1-.58-.6.61.61,0,1,1,.58.6Z"/></g></g></svg>