<svg xmlns="http://www.w3.org/2000/svg" viewBox="0 0 28.63 28.17"><defs><style>.cls-1{fill:#173458;}</style></defs><title>Asset 1</title><g id="Layer_2" data-name="Layer 2"><g id="Capa_1" data-name="Capa 1"><path class="cls-1" d="M0,12.65c.86-.3,1.71-.62,2.58-.89A1,1,0,0,0,3.32,11,8.87,8.87,0,0,1,4.46,8.24a.41.41,0,0,0,0-.45C4.06,7,3.66,6.1,3.24,5.26a.25.25,0,0,1,.06-.35c.58-.51,1.14-1,1.71-1.55a.26.26,0,0,1,.34,0c.87.42,1.74.83,2.62,1.23a.44.44,0,0,0,.37,0,12.55,12.55,0,0,1,3.26-1.4.46.46,0,0,0,.22-.25c.36-1,.71-1.91,1.07-2.87h2.86c.31.93.62,1.86.91,2.8a.46.46,0,0,0,.38.37,10.18,10.18,0,0,1,3.09,1.22.39.39,0,0,0,.43,0c.84-.4,1.69-.78,2.52-1.18a.34.34,0,0,1,.46.06c.54.56,1.1,1.1,1.66,1.64a.25.25,0,0,1,.06.35C24.84,6.1,24.44,7,24,7.78a.43.43,0,0,0,0,.46,11.32,11.32,0,0,1,1.38,3.22.4.4,0,0,0,.31.3l2.64.83.26.08v2.82l-2.14.67-.8.25a.29.29,0,0,0-.23.26c-.05.3-.14.6-.22.9l-.1,0c-.17-.2-.34-.4-.53-.59l-1.68-1.65a.41.41,0,0,1-.14-.39,7.94,7.94,0,0,0-3.54-7.81,8.26,8.26,0,0,0-5.76-1.5A8.47,8.47,0,0,0,7.6,8.84a8.31,8.31,0,0,0-.95,9.06,8.37,8.37,0,0,0,4.5,4,9,9,0,0,0,4.69.49c.09,0,.22,0,.27.05.74.7,1.46,1.42,2.22,2.16-.42.13-.8.25-1.18.35a.43.43,0,0,0-.34.31c-.32.89-.65,1.77-1,2.66l-.06.21h-2.9c-.36-1-.72-1.9-1.09-2.85a.29.29,0,0,0-.18-.14,11.7,11.7,0,0,1-3.26-1.42.37.37,0,0,0-.38,0c-.85.41-1.72.8-2.57,1.22A.32.32,0,0,1,5,24.89c-.54-.55-1.08-1.09-1.64-1.62a.29.29,0,0,1-.07-.4c.41-.82.8-1.65,1.21-2.47a.49.49,0,0,0,0-.51,10.75,10.75,0,0,1-1.14-2.71.94.94,0,0,0-.72-.77c-.87-.26-1.73-.6-2.6-.9Z"/><path class="cls-1" d="M8.89,12.54c.13.12.22.21.32.29l2.41,2.26a2.85,2.85,0,0,0,3.49.15,2.73,2.73,0,0,0,.44-4.16c-.79-.81-1.6-1.59-2.41-2.38a2.23,2.23,0,0,0-.24-.19l0-.09c.35-.06.7-.14,1.06-.17A5.74,5.74,0,0,1,20.13,14,4.85,4.85,0,0,1,19.71,16a.33.33,0,0,0,.09.43l8.13,8a2.15,2.15,0,0,1,.34,2.68,2.12,2.12,0,0,1-3.19.54c-.12-.1-.24-.2-.35-.31l-8-7.93a.4.4,0,0,0-.48-.11A5.69,5.69,0,0,1,9,15.87a5,5,0,0,1-.16-3.18A1.26,1.26,0,0,1,8.89,12.54Z"/></g></g></svg>