<svg xmlns="http://www.w3.org/2000/svg" viewBox="0 0 101.95 105.82"><defs><style>.cls-1-lifetime{fill:#030303;}.cls-2{fill:#f7eded;}</style></defs><title>Asset 113</title><g id="Layer_2" data-name="Layer 2"><g id="Capa_1" data-name="Capa 1"><path class="cls-1-lifetime" d="M5.62,36.84C4.12,37.2,3.79,37,3,35.61A24,24,0,0,1,18.12.79,23.49,23.49,0,0,1,38.2,4.65c.3.21.54.54.95.58C40.72,1.53,43,0,47.06,0h47.1a7.36,7.36,0,0,1,7.59,5.71,8,8,0,0,1,.18,2V25.25a2.27,2.27,0,0,1-.22,1.3,1.52,1.52,0,0,1-1.59.73,1.38,1.38,0,0,1-1.22-1.23A17.65,17.65,0,0,1,98.83,24c0-2.41,0-4.82,0-7.23,0-.71-.16-.92-.9-.92q-25.2,0-50.41,0c-.7,0-.86.11-.63.85a23.47,23.47,0,0,1-1.19,17.75,1.34,1.34,0,0,0,.06,1.33c1.15,2.19,2.25,4.4,3.4,6.59a3.34,3.34,0,0,1-.12,3.79,3.27,3.27,0,0,1-3.59,1.2c-.87-.19-1.77-.31-2.62-.55s-.9,0-.9.76q0,13.85,0,27.69c0,4.79,0,9.57,0,14.36,0,.73.19.9.91.9q27.53,0,55.06,0c1,0,.92-.46.92-1.12q0-27.73,0-55.48a5.92,5.92,0,0,1,.1-1.33,1.37,1.37,0,0,1,1.52-1.12,1.44,1.44,0,0,1,1.45,1.34,7.17,7.17,0,0,1,0,.93c0,21.38,0,42.76,0,64.15a7.66,7.66,0,0,1-4.78,7.48c-.49.19-1.06.11-1.5.46h-51c-.11-.35-.45-.29-.68-.37a7.34,7.34,0,0,1-5.1-7.23q0-17.5,0-35c0-5.44,0-10.88,0-16.32,0-.67-.18-.87-.86-1.06a7.27,7.27,0,0,0-4.91.44c-8.77,3.43-16.91,2.12-24.32-3.68-1.23-1-1.28-1.33-.68-2.73a1.87,1.87,0,0,1,2.59.22,20.67,20.67,0,0,0,23.17,2.4,2.83,2.83,0,0,1,2-.29c1.51.31,3,.63,4.54.93,2,.38,4,.74,6.09,1.13-.23-.48-.37-.82-.54-1.15-1.16-2.27-2.29-4.55-3.49-6.79a2.47,2.47,0,0,1,0-2.52A20.61,20.61,0,0,0,44.6,20.69,20.84,20.84,0,1,0,5.77,34.06C6.5,35.42,6.48,35.8,5.62,36.84ZM72,12.75v0c8.58,0,17.15,0,25.73,0,.86,0,1.13-.22,1.08-1.08-.07-1.31,0-2.62,0-3.93,0-2.9-1.72-4.58-4.65-4.59l-13.22,0H46.52A4.3,4.3,0,0,0,42,6.7a2.21,2.21,0,0,0,.54,2.08,13.58,13.58,0,0,1,2.2,3.11,1.48,1.48,0,0,0,1.54.88C54.86,12.74,63.44,12.75,72,12.75ZM70.35,93.62v0h-20c-2.47,0-5,0-7.43,0-.8,0-1,.23-1,1,.06,1.06,0,2.13,0,3.2,0,3.29,1.66,5,4.95,5h44c1.27,0,2.54,0,3.82,0a4.16,4.16,0,0,0,4.08-4.11c0-1.3-.05-2.62,0-3.92.06-.9-.28-1.06-1.1-1Q84,93.64,70.35,93.62Z"/><path class="cls-1" d="M93.46,45.69c0,1.83-1.52,3-2.83,2.14a3.86,3.86,0,0,0-4.56,0,1.87,1.87,0,0,1-2.8-2.07,3.82,3.82,0,0,0-1.41-4.27A1.9,1.9,0,0,1,83,38.13a3.71,3.71,0,0,0,3.63-2.61,1.88,1.88,0,0,1,3.49,0,3.74,3.74,0,0,0,3.61,2.64,1.9,1.9,0,0,1,1.09,3.38C93.2,42.79,92.77,44.16,93.46,45.69Zm-6.85-1.53a2.74,2.74,0,0,1,3.42-.1,2.87,2.87,0,0,1,1.09-3.26,2.71,2.71,0,0,1-2.79-2,2.74,2.74,0,0,1-2.89,2A2.78,2.78,0,0,1,86.61,44.16Z"/><path class="cls-1" d="M67.89,45.66c.9-1.72,0-3-1.47-4.35a1.89,1.89,0,0,1,1.23-3.18,3.66,3.66,0,0,0,3.62-2.61,1.89,1.89,0,0,1,3.5,0,3.85,3.85,0,0,0,3.7,2.66,1.89,1.89,0,0,1,1,3.29,3.93,3.93,0,0,0-1.43,4.35,1.86,1.86,0,0,1-2.86,2,3.75,3.75,0,0,0-4.46,0C69.4,48.63,67.82,47.49,67.89,45.66Zm3.38-1.55c1.06-.61,1.92-.89,2.85-.36.23.14.54.12.47-.25a2.8,2.8,0,0,1,1.23-2.69A3.41,3.41,0,0,1,74,40.29c-.45-.34-.59-.89-1-1.36a2.63,2.63,0,0,1-2.75,1.88A2.71,2.71,0,0,1,71.27,44.11Z"/><path class="cls-1" d="M52.65,45.66c.89-1.69,0-3-1.46-4.32a1.88,1.88,0,0,1,1.16-3.2,3.79,3.79,0,0,0,3.7-2.68,1.93,1.93,0,0,1,3.49,0s.05.05.05.09c.5,1.77,1.63,2.48,3.49,2.59a1.91,1.91,0,0,1,1.14,3.37,3.77,3.77,0,0,0-1.37,4.27,1.88,1.88,0,0,1-2.84,2,3.8,3.8,0,0,0-4.47,0C54.15,48.64,52.61,47.55,52.65,45.66ZM55,40.83c1,.85,1.47,1.65,1.2,2.72-.11.43.29.32.4.25,1-.61,1.89-.27,3,.22-.48-1.34,0-2.3,1-3.26a2.66,2.66,0,0,1-2.79-1.95A2.77,2.77,0,0,1,55,40.83Z"/><path class="cls-1" d="M73,79H65.5c-1.25,0-1.91-.53-1.94-1.5s.68-1.6,2-1.6h15c1.24,0,1.91.55,1.93,1.52S81.86,79,80.55,79Z"/><path class="cls-1" d="M69.32,69.24c-2.34,0-4.67,0-7,0-1.15,0-1.8-.56-1.82-1.5s.65-1.59,1.84-1.59q7.07,0,14.12,0c1.2,0,1.89.58,1.88,1.55s-.68,1.54-1.9,1.54C74.06,69.25,71.69,69.24,69.32,69.24Z"/><path class="cls-1" d="M54.55,55.51c2,0,4,0,6,0,1.26,0,1.92.53,1.95,1.5s-.67,1.61-1.95,1.61h-12c-1.29,0-2-.6-1.94-1.62s.68-1.48,1.94-1.49C50.57,55.5,52.56,55.51,54.55,55.51Z"/><path class="cls-1" d="M86.83,55.51c1.82,0,3.64,0,5.46,0,1.19,0,1.92.61,1.92,1.54s-.72,1.57-1.9,1.57c-3.67,0-7.35,0-11,0-1.17,0-1.9-.66-1.87-1.6s.71-1.5,1.84-1.51C83.12,55.5,85,55.51,86.83,55.51Z"/><path class="cls-1" d="M53.31,79c-1.62,0-3.24,0-4.86,0-1.17,0-1.8-.54-1.82-1.49s.66-1.59,1.86-1.6h9.7c1.13,0,1.82.61,1.84,1.53S59.37,79,58.16,79C56.54,79,54.93,79,53.31,79Z"/><path class="cls-1" d="M88.13,69.24c-1.41,0-2.82,0-4.23,0-1.1,0-1.81-.63-1.81-1.55a1.6,1.6,0,0,1,1.81-1.54c2.85,0,5.71,0,8.56,0a1.56,1.56,0,1,1,0,3.09C91,69.26,89.57,69.24,88.13,69.24Z"/><path class="cls-1" d="M52.2,69.24c-1.28,0-2.55,0-3.82,0-1.11,0-1.77-.63-1.75-1.58a1.53,1.53,0,0,1,1.72-1.51c2.58,0,5.17,0,7.75,0a1.56,1.56,0,1,1,0,3.09C54.81,69.26,53.51,69.24,52.2,69.24Z"/><path class="cls-1" d="M89.76,79c-1,0-1.93,0-2.9,0a1.54,1.54,0,0,1-.09-3.07c2-.05,3.93-.05,5.89,0a1.54,1.54,0,0,1,1.55,1.6A1.57,1.57,0,0,1,92.54,79C91.62,79,90.68,79,89.76,79Z"/><path class="cls-1" d="M71.25,55.53c.83,0,1.65,0,2.48,0a1.54,1.54,0,0,1,0,3.08c-1.65.06-3.3,0-5,0A1.53,1.53,0,0,1,67.24,57a1.55,1.55,0,0,1,1.64-1.5c.79,0,1.58,0,2.37,0Z"/><path class="cls-1" d="M24.37,39A14.94,14.94,0,1,1,39.31,24.14,14.91,14.91,0,0,1,24.37,39Zm9.13-22.2c0-.1,0-.16-.09-.16a11.33,11.33,0,0,0-11.65-3.94,11.68,11.68,0,0,0-.08,22.76c.08,0,.15.12.24.13A11.73,11.73,0,0,0,36.1,25.24,10.38,10.38,0,0,0,33.68,17Z"/><path class="cls-1" d="M75.11,6.82c1.21,0,2.41,0,3.61,0s1.69.58,1.7,1.51a1.53,1.53,0,0,1-1.66,1.58q-3.77,0-7.53,0A1.6,1.6,0,0,1,69.5,8.38c0-.92.69-1.54,1.8-1.55C72.57,6.81,73.84,6.82,75.11,6.82Z"/><path class="cls-1" d="M64.11,6.83c.69,0,1.37,0,2.06,0a1.54,1.54,0,0,1,.09,3.07c-1.47.06-3,.06-4.42,0a1.53,1.53,0,0,1-1.49-1.54A1.56,1.56,0,0,1,62,6.83C62.67,6.8,63.39,6.82,64.11,6.83Z"/><path class="cls-1" d="M70.44,98.81H66.11c-1.11,0-1.81-.61-1.82-1.53a1.61,1.61,0,0,1,1.79-1.57c2.89,0,5.77,0,8.66,0,1.11,0,1.76.63,1.74,1.59s-.64,1.5-1.81,1.51Z"/><path class="cls-1" d="M24.09,31.66a4,4,0,0,1-3.46-2.4,1.58,1.58,0,0,1,2.72-1.62c.85,1.15,1.24,1.16,2.16,0a1.57,1.57,0,0,1,2.19-.39,1.52,1.52,0,0,1,.46,2.09A4.36,4.36,0,0,1,24.09,31.66Z"/><path class="cls-1" d="M22.66,21.6c0,1.63-.52,2.41-1.6,2.4s-1.61-.77-1.61-2.4.51-2.47,1.66-2.44S22.66,19.91,22.66,21.6Z"/><path class="cls-1" d="M26.18,21.59c0-.31,0-.63,0-.93a1.5,1.5,0,0,1,1.52-1.5,1.54,1.54,0,0,1,1.61,1.42,11.36,11.36,0,0,1,0,1.65A1.64,1.64,0,0,1,27.73,24c-.93,0-1.52-.7-1.56-1.8v-.62Z"/><path class="cls-2" d="M33.27,26.87l.09-.07-.07.09Z"/></g></g></svg>