<svg xmlns="http://www.w3.org/2000/svg" viewBox="0 0 35.74 36.9"><defs><style>.cls-1{fill:#fcfcfc;}</style></defs><title>Asset 103</title><g id="Layer_2" data-name="Layer 2"><g id="Capa_1" data-name="Capa 1"><path class="cls-1" d="M29.18,0c.33.12.68.21,1,.36a3.34,3.34,0,0,1,2,3.07c0,1.28,0,2.57,0,3.85a.45.45,0,0,0,.23.44,3.43,3.43,0,0,1,1.46,3.73,3.86,3.86,0,0,1-3.09,2.82l-1,.1v6.37a1.18,1.18,0,0,1-1,1.17,1.21,1.21,0,0,1-1.33-.81,1.44,1.44,0,0,1-.05-.46V13.75a.47.47,0,0,0-.29-.5Q22.84,11,18.61,8.65a1.44,1.44,0,0,0-1.51,0L8.65,13.24a.52.52,0,0,0-.32.53c0,2.14,0,4.27,0,6.41a1.17,1.17,0,0,1-1,1.15A1.21,1.21,0,0,1,6,20.51a1.57,1.57,0,0,1,0-.43c0-1.78,0-3.56,0-5.33v-.41a4.24,4.24,0,0,1-2.67-.8,3.54,3.54,0,0,1,.41-6L16,.83a3.68,3.68,0,0,1,3.71,0l4.89,2.65.32.16a10.21,10.21,0,0,1,.31-1.4A3.37,3.37,0,0,1,27.57.14L28,0ZM30,12.05A1.56,1.56,0,0,0,31.49,11a1.14,1.14,0,0,0-.71-1.45L18.57,2.87a1.35,1.35,0,0,0-1.37,0L4.86,9.54a1.21,1.21,0,0,0-.33,2,1.53,1.53,0,0,0,2,.24c3.12-1.69,6.25-3.38,9.36-5.08a3.84,3.84,0,0,1,3.95,0c3.11,1.7,6.24,3.39,9.36,5.08A7.83,7.83,0,0,0,30,12.05Zm-.28-5.78c0-1,0-2,0-2.95a1.13,1.13,0,0,0-1.2-1A1.16,1.16,0,0,0,27.4,3.39c0,.48,0,1,0,1.44a.33.33,0,0,0,.14.22C28.25,5.46,29,5.85,29.76,6.27Z"/><path class="cls-1" d="M25.5,28.55c.87-1,1.7-1.92,2.54-2.85.5-.57,1-1.14,1.5-1.7a3.46,3.46,0,0,1,3.62-1.1,3.21,3.21,0,0,1,2.52,2.69,3.08,3.08,0,0,1-.82,2.73c-1.77,1.94-3.53,3.87-5.31,5.79A5.93,5.93,0,0,1,25,36H17.59a11.42,11.42,0,0,1-4.48-.86,13.27,13.27,0,0,0-6-.79c0,.46,0,.9,0,1.34A1.14,1.14,0,0,1,5.92,36.9H1.2A1.15,1.15,0,0,1,0,35.74V24.21a1.14,1.14,0,0,1,1.21-1.14c1.56,0,3.12,0,4.69,0a1.14,1.14,0,0,1,1.24,1.21c0,.15,0,.29,0,.47.39-.16.73-.31,1.08-.44a11.73,11.73,0,0,1,5.25-.69,9.47,9.47,0,0,1,4.28,1.19,3.34,3.34,0,0,0,1.92.46c.84,0,1.68,0,2.52,0a3.44,3.44,0,0,1,3.27,3.09A.66.66,0,0,0,25.5,28.55ZM23,29.21a1.25,1.25,0,0,0-1.44-1.62c-1.12.05-2.23,0-3.35,0a1.75,1.75,0,0,1-1-.35A6.12,6.12,0,0,0,16,26.53a10,10,0,0,0-6-.31,4.87,4.87,0,0,0-2.35,1.16,1.23,1.23,0,0,0-.41,1c0,1.11,0,2.21,0,3.32V32H8.5a13.63,13.63,0,0,1,5.43,1,10.24,10.24,0,0,0,3.91.72h7a3.79,3.79,0,0,0,3-1.27l2.74-3L33,26.8a.93.93,0,0,0,.21-1.07,1.05,1.05,0,0,0-.88-.63,1.28,1.28,0,0,0-1.14.55c-1.58,1.79-3.17,3.57-4.74,5.36a1.45,1.45,0,0,1-1.13.54H16.69a1.28,1.28,0,0,1-1-.41,1.07,1.07,0,0,1-.19-1.24,1.17,1.17,0,0,1,1.16-.69c2,0,3.94,0,5.92,0ZM4.75,25.39H2.4v9.18H4.75Z"/><path class="cls-1" d="M17.23,17.42l2.24-2.16c.19-.19.38-.38.58-.56a1.21,1.21,0,0,1,1.65.06,1.09,1.09,0,0,1,0,1.56q-1.82,1.82-3.68,3.57a1.14,1.14,0,0,1-1.58,0c-.63-.58-1.24-1.17-1.84-1.78a1.12,1.12,0,0,1,0-1.62,1.22,1.22,0,0,1,1.65,0C16.62,16.75,16.91,17.08,17.23,17.42Z"/></g></g></svg>