<svg xmlns="http://www.w3.org/2000/svg" viewBox="0 0 142.83 142.86"><defs><style>.cls-1{fill:#173458;}</style></defs><title>Asset 12</title><g id="Layer_2" data-name="Layer 2"><g id="Capa_1" data-name="Capa 1"><path class="cls-1" d="M142.83,132.53c-.2.66-.38,1.32-.59,2a12,12,0,0,1-11.36,8.32c-6.7,0-13.39,0-20.09,0H42c-8,0-13-5-13-13.07V89.33a9.19,9.19,0,0,1,0-1.39,2.15,2.15,0,0,1,2.15-2,2.18,2.18,0,0,1,2.26,2,10.71,10.71,0,0,1,0,1.39V130c0,5.33,3.06,8.42,8.36,8.42h88.3c5.14,0,8.24-3.1,8.24-8.25V64.73H84.87a10.87,10.87,0,0,1-1.4,0,2.17,2.17,0,0,1-2-2.27,2.14,2.14,0,0,1,2-2.14,9.2,9.2,0,0,1,1.39,0h53.5V58.89c0-5.76,0-11.53,0-17.29,0-4.92-3.2-8.11-8.13-8.12h-41a10.4,10.4,0,0,1-1.25,0A2.22,2.22,0,0,1,88,29c.41,0,.84,0,1.25,0h40.32c7.08,0,11.24,3.22,13,10.1,0,.08.11.15.17.22Z"/><path class="cls-1" d="M44.34,0c1.5.27,3,.51,4.49.8A40.74,40.74,0,0,1,81.49,36.21a40.32,40.32,0,0,1-9.32,31c-.26.32-.5.65-.9,1.15.46.38.93.7,1.32,1.09Q93,89.82,113.32,110.19c1.63,1.62,1.89,2.85.85,3.94s-2.36.86-4-.82L69.3,72.48a14.34,14.34,0,0,1-1-1.23,42.23,42.23,0,0,1-11.7,7.41A40.91,40.91,0,1,1,35.59.33c.69-.09,1.37-.22,2-.33ZM40.9,77.31A36.42,36.42,0,1,0,4.44,41.19,36.36,36.36,0,0,0,40.9,77.31Z"/><path class="cls-1" d="M104.91,53.56a6.69,6.69,0,1,1,6.66-6.64A6.72,6.72,0,0,1,104.91,53.56Zm0-8.91a2.22,2.22,0,1,0,2.17,2.24A2.24,2.24,0,0,0,104.93,44.65Z"/><path class="cls-1" d="M124.85,53.56a6.69,6.69,0,1,1,6.81-6.49A6.73,6.73,0,0,1,124.85,53.56ZM127.19,47a2.22,2.22,0,1,0-2.3,2.11A2.25,2.25,0,0,0,127.19,47Z"/><path class="cls-1" d="M19,41.19V22.08c0-2.4.68-3.11,3-3.11H60.61c2.26,0,3,.73,3,3V60.64c0,2.25-.73,3-3,3H21.92c-2.26,0-3-.73-3-3ZM59.06,23.54H23.55V52c2.8-1.53,5.47-2.93,8.08-4.44A3.3,3.3,0,0,1,35,47.33c1.07.54,2.24.89,3.33,1.41a1.82,1.82,0,0,0,2-.19c3.35-2.18,6.76-4.26,10.09-6.46a3.33,3.33,0,0,1,3.64-.29c1.57.77,3.21,1.38,4.93,2.11ZM23.52,59.05H51.15a2.33,2.33,0,0,0-.31-.28c-5.52-2.31-11-4.64-16.58-6.9a2.06,2.06,0,0,0-1.51.17c-2.63,1.39-5.19,2.91-7.84,4.25C23.7,56.9,23.08,57.6,23.52,59.05Zm20.92-7.79,14.68,6.11c0-2.81,0-5.39,0-8a1.15,1.15,0,0,0-.56-.81c-1.77-.81-3.56-1.57-5.37-2.3a1.28,1.28,0,0,0-1,.07C49.65,47.92,47.16,49.53,44.44,51.26Z"/><path class="cls-1" d="M28.93,35.45a7.62,7.62,0,1,1,7.63,7.75A7.58,7.58,0,0,1,28.93,35.45Zm10.78.1a3.16,3.16,0,1,0-3.21,3.18A3.2,3.2,0,0,0,39.71,35.55Z"/></g></g></svg>