<svg xmlns="http://www.w3.org/2000/svg" viewBox="0 0 125.6 125.64"><defs><style>.cls-1{fill:#040304;}.cls-2{fill:#868686;}.cls-3{fill:#fd5d2c;}.cls-4{fill:#f15ead;}.cls-5{fill:#fd4e4e;}.cls-6{fill:#00cd68;}.cls-7{fill:#2aa0f0;}.cls-8{fill:#2857db;}.cls-9{fill:#f9c43f;}.cls-10{fill:#5f17c7;}.cls-11{fill:#f096c9;}.cls-12{fill:#7cc8fd;}.cls-13{fill:#62cc95;}.cls-14{fill:#8862c4;}.cls-15{fill:#ed997e;}</style></defs><title>Asset 13</title><g id="Layer_2" data-name="Layer 2"><g id="Capa_1" data-name="Capa 1"><path class="cls-1" d="M66.68,0h.74a19,19,0,0,0,3.9.57,61.44,61.44,0,0,1,32.81,15,61.79,61.79,0,0,1,21,39.8,5.58,5.58,0,0,0,.45,2.55V68c-.4.13-.23.47-.26.72-.3,2-.49,4-.87,5.94a60.93,60.93,0,0,1-18.89,34.11c-14.56,13.39-31.8,18.75-51.37,16.3A58.72,58.72,0,0,1,21.6,110.26C4.18,94.59-2.66,75,.92,51.89a59.08,59.08,0,0,1,11.4-26.5A62.28,62.28,0,0,1,43,3.19c1.43-.48,2-.3,2.86,1,0,1.69-.24,2-2.12,2.64A58.9,58.9,0,0,0,23.07,19c-.68.6-.73.9-.06,1.57q6,5.88,11.88,11.88c.79.81,1.25.92,2.12.12a34.64,34.64,0,0,1,7.91-5.3,39.55,39.55,0,0,1,15-4.12c.71-.05,1-.23,1-1q0-8.76,0-17.53c0-.72-.23-.89-.93-.84-2.4.2-4.8.37-7.18.8a2.06,2.06,0,0,1-2.62-1.39A1.9,1.9,0,0,1,51.81,1c.48-.09,1-.13,1.44-.24,1.43-.36,3-.12,4.35-.73h1.72c.33.42.65.34,1,0H66C66.19.24,66.44.37,66.68,0ZM89.27,62.84c-.54,1.57-.9,1.84-2.59,1.85-2.9,0-5.8,0-8.7,0-.73,0-1.11.17-1.23,1a11.78,11.78,0,0,1-2.13,5.15c-.45.63-.37,1,.16,1.52q7.06,7,14,14c.62.62.91.59,1.46-.07a36.48,36.48,0,0,0,8.53-20.45c.09-1-.18-1.24-1.09-1.13-.6.07-1.22,0-1.84,0a2.11,2.11,0,0,1-2.46-1.85A2.14,2.14,0,0,1,95.88,61c.69,0,1.39,0,2.08,0s.92-.19.86-.91A36.33,36.33,0,0,0,90.17,39.3c-.45-.53-.71-.59-1.22-.07q-7.08,7.14-14.22,14.21a.94.94,0,0,0-.13,1.44A12.16,12.16,0,0,1,76.75,60c.12.77.49,1,1.23,1,2.9,0,5.8,0,8.7,0C88.35,61,88.73,61.29,89.27,62.84ZM27.65,77.54a2.1,2.1,0,0,1,2.68,1.3,37.11,37.11,0,0,0,5.06,7.64c.37.42.59.55,1,.1q7.23-7.27,14.48-14.49A.73.73,0,0,0,51,71a13,13,0,0,1-2.28-5.48c-.09-.59-.37-.8-1-.8q-10.12,0-20.24,0c-.74,0-.91.27-.81.94.22,1.41.35,2.83.61,4.24a2.06,2.06,0,0,1-1.37,2.63c-1.58-.11-1.95-.45-2.27-2A30.49,30.49,0,0,1,23,65.61c0-.77-.33-1-1-.93-1.8,0-3.6,0-5.4,0H4.69c-.48,0-1.09-.22-1,.73A68.2,68.2,0,0,0,5,75.39,59.27,59.27,0,0,0,19,102.62c.56.63.82.57,1.37,0q6.07-6.15,12.24-12.23c.65-.64.5-1,0-1.55a38.31,38.31,0,0,1-5.51-8.23C26.36,79.15,26.45,78.62,27.65,77.54ZM13.22,61c2.9,0,5.8,0,8.7,0,.76,0,1.07-.15,1.12-1a37.34,37.34,0,0,1,1.09-6.88,38.79,38.79,0,0,1,8.48-16.24c.55-.64.62-1,0-1.66Q26.39,29.16,20.32,23c-.51-.52-.78-.57-1.3,0A61.39,61.39,0,0,0,10,36.2,59.08,59.08,0,0,0,3.67,60.06c0,.86.28.93,1,.93C7.49,61,10.35,61,13.22,61Zm99,0h8.71c.48,0,1,.12.93-.71a62.06,62.06,0,0,0-2.93-16,59.93,59.93,0,0,0-12.3-21.13c-.67-.74-1-.61-1.59,0-4,4-8,8-12,12-.73.71-.68,1.13-.05,1.87a39,39,0,0,1,9.48,22.9c.07.84.3,1.11,1.15,1.09C106.48,60.94,109.34,61,112.2,61Zm0,3.73c-2.86,0-5.72,0-8.58,0-.85,0-1.09.25-1.15,1.08A39.31,39.31,0,0,1,99,79.44a38.52,38.52,0,0,1-6.11,9.43c-.46.52-.64.87,0,1.48,4.17,4.1,8.29,8.25,12.42,12.39.39.4.64.58,1.12,0a60.25,60.25,0,0,0,11.55-18.63,61.3,61.3,0,0,0,3.92-18.62c0-.85-.34-.84-.93-.84ZM64.63,112.18V121c0,.49-.1,1,.72.92a62.5,62.5,0,0,0,16-2.94,59.7,59.7,0,0,0,21.12-12.32c.64-.57.71-.86.07-1.49Q96.4,99.15,90.38,93c-.67-.69-1-.58-1.68,0a39.17,39.17,0,0,1-23.13,9.56c-.75.06-1,.3-1,1C64.65,106.45,64.63,109.32,64.63,112.18Zm0-98.89c0,2.82,0,5.64,0,8.46,0,.94.15,1.35,1.22,1.4a32.78,32.78,0,0,1,6.52,1,39.4,39.4,0,0,1,16.46,8.55c.41.36.73.8,1.37.15q6.24-6.33,12.56-12.58c.37-.37.52-.59,0-1A59.15,59.15,0,0,0,65.53,3.76c-.85,0-.94.26-.93.94C64.62,7.57,64.61,10.43,64.61,13.29Zm-3.73,99.08c0-2.9,0-5.81,0-8.71,0-.66-.08-1-.9-1.08a39,39,0,0,1-23.16-9.53c-.69-.6-1.11-.62-1.78.07-3.64,3.71-7.33,7.36-11,11-1.77,1.77-1.77,1.77.07,3.38A58,58,0,0,0,41.56,118a60.86,60.86,0,0,0,18.51,3.88c.89,0,.81-.41.81-1ZM73.36,62.81A10.61,10.61,0,1,0,62.81,73.44,10.62,10.62,0,0,0,73.36,62.81ZM60.89,88c0-3.31,0-6.62,0-9.93,0-.71-.13-1.14-.93-1.26a11.8,11.8,0,0,1-5.15-2.14c-.65-.46-1-.34-1.53.19q-7,7-14,14c-.56.55-.63.84,0,1.4A36.31,36.31,0,0,0,59.84,98.9c.92.09,1.07-.25,1.06-1.07C60.87,94.57,60.89,91.3,60.89,88Zm4.5-61.26c-.51-.11-.81,0-.81.73q0,10.19,0,20.36a.83.83,0,0,0,.83,1,12.91,12.91,0,0,1,5.48,2.29A.72.72,0,0,0,72,51q7.19-7.2,14.4-14.39c.46-.46.44-.7-.06-1.13A36.24,36.24,0,0,0,65.39,26.77Zm.07,72.11A36.28,36.28,0,0,0,86.3,90.25c.69-.58.42-.84,0-1.3q-7-7-14-14a1,1,0,0,0-1.62-.12,12,12,0,0,1-5,2.07c-.67.11-1,.36-1,1.11q0,10,0,20.1C64.61,98.76,64.8,99.07,65.46,98.88ZM37.54,61c3.35,0,6.71,0,10.06,0,.69,0,1-.18,1.16-.9a11.88,11.88,0,0,1,2.18-5.26c.43-.59.34-.93-.16-1.42q-7.1-7-14.13-14.14c-.6-.61-.88-.54-1.39.07a36.42,36.42,0,0,0-8.58,20.57c-.08.91.2,1.1,1.05,1.08C31,61,34.27,61,37.54,61ZM60.9,37.8c0-3.35,0-6.7,0-10.06,0-.81-.22-1-1-1A36.41,36.41,0,0,0,39.3,35.35c-.61.51-.67.79-.07,1.39q7.07,7,14.05,14c.51.52.87.69,1.52.21A11.73,11.73,0,0,1,60,48.85c.78-.13,1-.49,1-1.23C60.88,44.35,60.9,41.07,60.9,37.8Z"/><path class="cls-2" d="M60.3,0c-.33.34-.65.42-1,0Z"/><path class="cls-2" d="M66.68,0c-.24.37-.49.24-.73,0Z"/><path class="cls-3" d="M45.85,4.2l4.32-1a2.06,2.06,0,0,0,2.62,1.39c2.38-.43,4.78-.6,7.18-.8.7,0,.94.12.93.84q0,8.76,0,17.53c0,.76-.27.94-1,1a39.55,39.55,0,0,0-15,4.12A34.64,34.64,0,0,0,37,32.53c-.87.8-1.33.69-2.12-.12Q29,26.4,23,20.53c-.67-.67-.62-1,.06-1.57A58.9,58.9,0,0,1,43.73,6.84C45.61,6.2,45.84,5.89,45.85,4.2Z"/><path class="cls-4" d="M27.65,77.54c-1.2,1.08-1.29,1.61-.55,3.09a38.31,38.31,0,0,0,5.51,8.23c.5.57.65.91,0,1.55q-6.18,6.06-12.24,12.23c-.55.55-.81.61-1.37,0A59.27,59.27,0,0,1,5,75.39a68.2,68.2,0,0,1-1.29-10c-.06-1,.55-.73,1-.73h11.9c1.8,0,3.6,0,5.4,0,.71,0,1,.16,1,.93a30.49,30.49,0,0,0,.63,4.86c.32,1.56.69,1.9,2.27,2A30.48,30.48,0,0,0,27.65,77.54Z"/><path class="cls-5" d="M13.22,61c-2.87,0-5.73,0-8.59,0-.68,0-1-.07-1-.93A59.08,59.08,0,0,1,10,36.2,61.39,61.39,0,0,1,19,23c.52-.58.79-.53,1.3,0q6.09,6.15,12.24,12.23c.67.65.6,1,0,1.66a38.79,38.79,0,0,0-8.48,16.24A37.34,37.34,0,0,0,23,60c-.05.84-.36,1-1.12,1C19,61,16.12,61,13.22,61Z"/><path class="cls-6" d="M112.2,61c-2.86,0-5.72,0-8.58,0-.85,0-1.08-.25-1.15-1.09A39,39,0,0,0,93,37c-.63-.74-.68-1.16.05-1.87,4-3.95,8-7.95,12-12,.61-.62.92-.75,1.59,0a59.93,59.93,0,0,1,12.3,21.13,62.06,62.06,0,0,1,2.93,16c0,.83-.45.71-.93.71Z"/><path class="cls-7" d="M112.2,64.7h8.71c.59,0,1,0,.93.84a61.3,61.3,0,0,1-3.92,18.62,60.25,60.25,0,0,1-11.55,18.63c-.48.54-.73.36-1.12,0C101.12,98.6,97,94.45,92.83,90.35c-.62-.61-.44-1,0-1.48A38.52,38.52,0,0,0,99,79.44a39.31,39.31,0,0,0,3.51-13.68c.06-.83.3-1.1,1.15-1.08C106.48,64.73,109.34,64.7,112.2,64.7Z"/><path class="cls-8" d="M64.63,112.18c0-2.86,0-5.73,0-8.59,0-.72.21-1,1-1A39.17,39.17,0,0,0,88.7,93c.63-.55,1-.66,1.68,0q6,6.12,12.14,12.14c.64.63.57.92-.07,1.49A59.7,59.7,0,0,1,81.33,119a62.5,62.5,0,0,1-16,2.94c-.82,0-.72-.43-.72-.92Z"/><path class="cls-9" d="M64.61,13.29c0-2.86,0-5.72,0-8.59,0-.68.08-1,.93-.94a59.15,59.15,0,0,1,37.21,15.5c.49.44.34.66,0,1q-6.3,6.27-12.56,12.58c-.64.65-1,.21-1.37-.15a39.4,39.4,0,0,0-16.46-8.55,32.78,32.78,0,0,0-6.52-1c-1.07,0-1.23-.46-1.22-1.4C64.64,18.93,64.61,16.11,64.61,13.29Z"/><path class="cls-10" d="M60.88,112.37V121c0,.55.08,1-.81,1A60.86,60.86,0,0,1,41.56,118a58,58,0,0,1-17.45-10.5c-1.84-1.61-1.84-1.61-.07-3.38,3.68-3.68,7.37-7.33,11-11,.67-.69,1.09-.67,1.78-.07A39,39,0,0,0,60,102.58c.82.06.9.42.9,1.08C60.86,106.56,60.88,109.47,60.88,112.37Z"/><path class="cls-11" d="M27.65,77.54a30.48,30.48,0,0,1-1.72-5.06,2.06,2.06,0,0,0,1.37-2.63c-.26-1.41-.39-2.83-.61-4.24-.1-.67.07-.94.81-.94q10.13,0,20.24,0c.61,0,.89.21,1,.8A13,13,0,0,0,51,71a.73.73,0,0,1-.09,1.13q-7.26,7.23-14.48,14.49c-.45.45-.67.32-1-.1a37.11,37.11,0,0,1-5.06-7.64A2.1,2.1,0,0,0,27.65,77.54Z"/><path class="cls-12" d="M93.42,62.84a2.11,2.11,0,0,0,2.46,1.85c.62,0,1.24.06,1.84,0,.91-.11,1.18.17,1.09,1.13a36.48,36.48,0,0,1-8.53,20.45c-.55.66-.84.69-1.46.07q-7-7.06-14-14c-.53-.54-.61-.89-.16-1.52a11.78,11.78,0,0,0,2.13-5.15c.12-.78.5-1,1.23-1,2.9,0,5.8,0,8.7,0,1.69,0,2-.28,2.59-1.85Z"/><path class="cls-13" d="M93.42,62.84H89.27c-.54-1.55-.92-1.85-2.59-1.86-2.9,0-5.8,0-8.7,0-.74,0-1.11-.19-1.23-1a12.16,12.16,0,0,0-2.15-5.15.94.94,0,0,1,.13-1.44Q81.87,46.38,89,39.23c.51-.52.77-.46,1.22.07a36.33,36.33,0,0,1,8.65,20.78c.06.72-.16,1-.86.91s-1.39,0-2.08,0A2.14,2.14,0,0,0,93.42,62.84Z"/><path class="cls-14" d="M60.89,88c0,3.27,0,6.54,0,9.8,0,.82-.14,1.16-1.06,1.07a36.31,36.31,0,0,1-20.57-8.57c-.66-.56-.59-.85,0-1.4q7-7,14-14c.52-.53.88-.65,1.53-.19A11.8,11.8,0,0,0,60,76.84c.8.12.94.55.93,1.26C60.87,81.41,60.89,84.72,60.89,88Z"/><path class="cls-9" d="M65.39,26.77a36.24,36.24,0,0,1,21,8.7c.5.43.52.67.06,1.13Q79.21,43.77,72,51a.72.72,0,0,1-1.13.12,12.91,12.91,0,0,0-5.48-2.29.83.83,0,0,1-.83-1q0-10.17,0-20.36C64.58,26.79,64.88,26.66,65.39,26.77Z"/><path class="cls-12" d="M65.46,98.88c-.66.19-.85-.12-.85-.82q0-10.05,0-20.1c0-.75.28-1,1-1.11a12,12,0,0,0,5-2.07,1,1,0,0,1,1.62.12q7,7.06,14,14c.46.46.73.72,0,1.3A36.28,36.28,0,0,1,65.46,98.88Z"/><path class="cls-15" d="M37.54,61c-3.27,0-6.54,0-9.81,0-.85,0-1.13-.17-1.05-1.08a36.42,36.42,0,0,1,8.58-20.57c.51-.61.79-.68,1.39-.07q7,7.1,14.13,14.14c.5.49.59.83.16,1.42a11.88,11.88,0,0,0-2.18,5.26c-.12.72-.47.91-1.16.9C44.25,61,40.89,61,37.54,61Z"/><path class="cls-15" d="M60.9,37.8c0,3.27,0,6.55,0,9.82,0,.74-.19,1.1-1,1.23A11.73,11.73,0,0,0,54.8,51c-.65.48-1,.31-1.52-.21q-7-7.05-14.05-14c-.6-.6-.54-.88.07-1.39a36.41,36.41,0,0,1,20.58-8.57c.82-.07,1,.15,1,1C60.88,31.1,60.9,34.45,60.9,37.8Z"/></g></g></svg>