<svg xmlns="http://www.w3.org/2000/svg" viewBox="0 0 217.17 196.41" fill="green" >
<defs>
<style>.cls-1{font-size:30px;font-family:Poppins-SemiBold, Poppins SemiBold;font-weight:600;}.cls-1,.cls-2{fill:#173458;}</style>
</defs>
<g id="Layer_2" data-name="Layer 2">
<g id="Capa_1" data-name="Capa 1">
<path class="cls-2" d="M50.77,196.41c-.34-.14-.67-.29-1-.41a7.35,7.35,0,1,1,9.16-9.8c.13.3.25.61.38,1H87.57c-.41-.23-.63-.37-.86-.47-20.22-8.85-32.49-24.11-35.78-45.92-2.68-17.78,2.45-33.58,14.3-47.15.94-1.07,2.09-1.24,2.93-.5S69,95,68,96.08c-6.86,7.72-11.51,16.6-13.09,26.82-3.4,21.88,3.69,39.83,21.15,53.47a50.65,50.65,0,0,0,25.16,10.28c0-.54,0-1.05,0-1.57a3.13,3.13,0,0,1,3.45-3.37c2.54,0,5.07,0,7.6,0s3.58,1.14,3.65,3.56c0,.41,0,.82,0,1.24,20.38-1.93,44.14-19.65,46.94-48.56A54.41,54.41,0,0,0,116,78.6c0,.62,0,1.22-.1,1.82a3.09,3.09,0,0,1-3.25,3.08c-2.65,0-5.31,0-8,0a3.14,3.14,0,0,1-3.46-3.37c0-.49,0-1,0-1.58a50.06,50.06,0,0,0-10.86,2.59,53.86,53.86,0,0,0-15.32,8.4c-.2.15-.39.31-.59.45a1.86,1.86,0,1,1-2.28-2.93A60.53,60.53,0,0,1,78,83c2.79-1.61,5.74-3,8.62-4.43a1.62,1.62,0,0,0,.72-.55h-.78c-8.72,0-17.45,0-26.17,0a1.37,1.37,0,0,0-1.52,1,7.24,7.24,0,0,1-8.1,4.34,7.34,7.34,0,1,1,8.15-10,1.21,1.21,0,0,0,1.32.93q20,0,40,0c.28,0,.57,0,1-.06,0-.74,0-1.43,0-2.12a3.12,3.12,0,0,1,3.41-3.29q3.93,0,7.85,0a3.12,3.12,0,0,1,3.43,3.27c0,.7,0,1.39,0,2.15.51,0,.88,0,1.24,0h39.62c.64,0,1.11,0,1.43-.78a7.22,7.22,0,0,1,7.21-4.7,7.41,7.41,0,0,1,6.71,5.43,2.92,2.92,0,0,0,.25.54v2.74a3,3,0,0,0-.25.55,7.4,7.4,0,0,1-6.71,5.42,7.22,7.22,0,0,1-7.21-4.7c-.33-.8-.8-.77-1.43-.77h-27c23.35,10.81,36.89,28.62,36.88,54.58s-13.53,43.81-36.89,54.59c2.75,0,5.45,0,8.15,0a1.86,1.86,0,0,1,1.88,2.68,2.14,2.14,0,0,1-2.21,1.05H115.92c.12,2.35.19,4.52-2.35,5.49h-10c-2.59-1-2.43-3.23-2.37-5.43h-42c-.83,2.91-2.94,4.53-5.73,5.43ZM112.1,79.73V72.61h-7v7.12ZM105,192.59h7.07v-7.08H105ZM55.75,76.14a3.61,3.61,0,1,0-3.66,3.62A3.64,3.64,0,0,0,55.75,76.14Zm112.9,0A3.61,3.61,0,1,0,165,79.76,3.63,3.63,0,0,0,168.65,76.12ZM55.75,189a3.61,3.61,0,1,0-3.65,3.64A3.64,3.64,0,0,0,55.75,189Z"/>
<path class="cls-2" d="M163.67,196.41c-3.77-1.61-4-1.85-5.87-5.49-3.54,0-7.11.06-10.67,0a2.7,2.7,0,0,1-1.84-1.12,1.9,1.9,0,0,1,.22-1.79,2.71,2.71,0,0,1,1.84-.74c3.19-.07,6.39-.05,9.58,0a1.13,1.13,0,0,0,1.29-.81,7.24,7.24,0,0,1,7.22-4.67,7.39,7.39,0,0,1,6.7,5.42,2.92,2.92,0,0,0,.25.54v2.75c-.3.71-.56,1.44-.91,2.13a8.18,8.18,0,0,1-5.07,3.85Zm1.37-3.74a3.61,3.61,0,1,0-3.61-3.68A3.66,3.66,0,0,0,165,192.67Z"/>
<path class="cls-2" d="M63,132.62a45.59,45.59,0,1,1,45.61,45.57A45.69,45.69,0,0,1,63,132.62Zm45.62-41.87a41.85,41.85,0,1,0,41.82,41.88A42,42,0,0,0,108.62,90.75Z"/>
<path class="cls-2" d="M81.63,132.53a10,10,0,1,1,9.88,10A9.94,9.94,0,0,1,81.63,132.53Zm3.74.09a6.2,6.2,0,0,0,6.27,6.21,6.23,6.23,0,0,0,0-12.46A6.2,6.2,0,0,0,85.37,132.62Z"/>
<path class="cls-2" d="M144.24,132.66a10,10,0,1,1-9.91-10A10,10,0,0,1,144.24,132.66Zm-3.74-.07a6.23,6.23,0,1,0-6.24,6.24A6.22,6.22,0,0,0,140.5,132.59Z"/>
<path class="cls-2" d="M118.29,134.48c-.89,0-1.68,0-2.46,0-1.31-.07-2-.76-2-1.87s.72-1.81,2-1.84c1.49,0,3,0,4.48,0s2,.73,2,2.14c0,5.41-3.59,9.54-8.48,9.67a10,10,0,0,1-10.28-9.26,10,10,0,0,1,15.16-9.18,1.89,1.89,0,0,1,.87,2.73,1.93,1.93,0,0,1-2.74.5l-.54-.3a6.23,6.23,0,1,0-2.2,11.76A4.76,4.76,0,0,0,118.29,134.48Z"/>
<path class="cls-2" d="M76.67,138.84c1.25,0,2.36,0,3.48,0,1.33,0,2.19.76,2.19,1.86s-.86,1.85-2.2,1.87q-2.49,0-5,0c-1.55,0-2.22-.67-2.22-2.2q0-7.78,0-15.57c0-1.34.74-2.17,1.86-2.16s1.86.83,1.86,2.19c0,4.15,0,8.3,0,12.46Z"/>
</g>
</g>
</svg>