<svg xmlns="http://www.w3.org/2000/svg" viewBox="0 0 31.43 31.45"><defs><style>.cls-1{fill:#173458;}</style></defs><title>Asset 9</title><g id="Layer_2" data-name="Layer 2"><g id="Capa_1" data-name="Capa 1"><path class="cls-1" d="M2.4,31.45H1.78a3.06,3.06,0,0,1-1.21-.89,1.55,1.55,0,0,1-.18-2.23c.44-.61.89-1.22,1.32-1.84A.88.88,0,0,0,1.85,26c0-.83,0-1.66-.07-2.48A2,2,0,0,1,2.43,22Q9,15.41,15.54,8.85a2.49,2.49,0,0,1,.31-.23c-.12-.14-.19-.21-.26-.28C15.05,7.79,14.5,7.25,14,6.71a1.05,1.05,0,0,1,0-1.66l2.22-2.21a1.08,1.08,0,0,1,1.79,0l1.34,1.34,2.78-2.78A4.47,4.47,0,0,1,28.16,1a23.67,23.67,0,0,1,2.3,2.29,3.09,3.09,0,0,1,.56.94,12.72,12.72,0,0,1,.41,1.37v1L31.34,7A4.72,4.72,0,0,1,30,9.4l-2.75,2.74,1.47,1.47a1,1,0,0,1,0,1.54c-.79.8-1.59,1.6-2.39,2.39a1,1,0,0,1-1.54,0c-.57-.55-1.13-1.12-1.7-1.69l-.25-.24-.25.31Q16,22.49,9.46,29.07A1.88,1.88,0,0,1,8,29.68c-.77,0-1.55,0-2.33-.08a1.27,1.27,0,0,0-.84.26C4,30.41,3.19,30.93,2.4,31.45ZM18,10.77l-.05,0L5,23.74a.48.48,0,0,0-.13.32c0,.74,0,1.47.06,2.21,0,.2.08.26.27.26.7,0,1.39,0,2.09.07a.64.64,0,0,0,.53-.22q6.33-6.33,12.67-12.67l.2-.22Z"/></g></g></svg>