<svg xmlns="http://www.w3.org/2000/svg" viewBox="0 0 37.01 37"><defs><style>.cls-1,.cls-2{fill:#fff;}.cls-1{stroke:#fff;stroke-miterlimit:10;}</style></defs><title>Asset 102</title><g id="Layer_2" data-name="Layer 2"><g id="Capa_1" data-name="Capa 1"><path class="cls-1" d="M18.49,3.25A10.85,10.85,0,0,1,36,14.86c.45.16.53.51.52,1,0,2.25,0,4.5,0,6.75a8.75,8.75,0,0,1-2.6,6.37q-3.49,3.59-7,7.18c-.5.51-.75.51-1.24,0l-4.28-4.41a1.85,1.85,0,0,1-.24-.33c-.79.48-1.51.91-2.21,1.35a.78.78,0,0,1-.88,0,51.94,51.94,0,0,1-11.7-9.16,22.78,22.78,0,0,1-5-7.66,11.69,11.69,0,0,1-.14-8.53A10.77,10.77,0,0,1,18.3,3.1Zm16.34,11.2a10.31,10.31,0,0,0,.32-4.77,9.21,9.21,0,0,0-6.42-7.47,9.23,9.23,0,0,0-9.6,2.12c-.54.49-.72.49-1.26,0A9.33,9.33,0,0,0,10,1.8,9.62,9.62,0,0,0,1.89,13.3a16.65,16.65,0,0,0,2.78,6.24,35.75,35.75,0,0,0,6.87,7.19,56.43,56.43,0,0,0,6.68,4.69c.11.07.3.15.39.1.55-.31,1.08-.65,1.62-1l.09-.16c-.55-.49-1.12-1-1.64-1.48a8.63,8.63,0,0,1-2.58-6.31c0-2.26,0-4.52,0-6.78,0-.67.05-.75.68-1q4.47-1.66,8.93-3.35a1.56,1.56,0,0,1,1.18,0C29.53,12.47,32.15,13.45,34.83,14.45ZM26.29,35l.19-.18c2.26-2.32,4.53-4.63,6.76-7a7.28,7.28,0,0,0,2-5.09c0-2.18,0-4.37,0-6.56a.39.39,0,0,0-.33-.44c-2.77-1-5.53-2.07-8.3-3.12a1,1,0,0,0-.75,0L17.6,15.8a.38.38,0,0,0-.3.42c0,2.17,0,4.35,0,6.52A7.41,7.41,0,0,0,19.42,28c.67.7,1.34,1.38,2,2.07Z"/><path class="cls-2" d="M16.36,6.24,15.53,7A5.86,5.86,0,0,0,9,5.76,5.91,5.91,0,0,0,5.28,11.3H4.16a7.12,7.12,0,0,1,12.2-5.06Z"/><path class="cls-2" d="M19.05,20.43c0-.86,0-1.72,0-2.58a.65.65,0,0,1,.46-.69c2.15-.89,4.3-1.8,6.45-2.68a1,1,0,0,1,.69,0c2.15.88,4.29,1.78,6.43,2.67a.69.69,0,0,1,.47.72c0,1.59,0,3.18,0,4.77A6,6,0,0,1,31.77,27c-1.64,1.67-3.31,3.32-5,5-.37.37-.63.37-1,0L20.87,27a6.06,6.06,0,0,1-1.82-4.42Zm13.37-2.35-6-2.48a.51.51,0,0,0-.3,0l-6,2.49v.39c0,1.33,0,2.67,0,4a5.09,5.09,0,0,0,1.58,3.84c1.44,1.42,2.86,2.85,4.29,4.28l.26.24.12-.09C28,29.18,29.56,27.62,31.11,26a4.45,4.45,0,0,0,1.12-2,3.89,3.89,0,0,0,.18-.95C32.43,21.44,32.42,19.77,32.42,18.08Z"/><path class="cls-2" d="M23.62,23.59l1.6,1.62c1.58-1.57,3.12-3.11,4.65-4.65l.88.91-.21.23c-1.54,1.55-3.09,3.09-4.64,4.64-.47.47-.72.47-1.19,0l-1.95-1.94Z"/></g></g></svg>