<svg xmlns="http://www.w3.org/2000/svg" viewBox="0 0 107.72 107.72"><defs><style>.cls-1{fill:#fff;}</style></defs><title>Asset 118</title><g id="Layer_2" data-name="Layer 2"><g id="Capa_1" data-name="Capa 1"><path class="cls-1" d="M0,107.72V0H107.72V107.72ZM27,78.87V45.35h3.22V42h-2.8c-2.56,0-3.87,1.32-3.87,3.88V78.4c0,2.64,1.29,3.91,3.94,3.92h33v3.34H25.66c-3.42,0-5.49-2.08-5.49-5.5v-36a6.86,6.86,0,0,1,.09-1.36,5,5,0,0,1,5-4.15c1.66,0,3.33,0,5,0V35.26H25.54A8.4,8.4,0,0,0,16.8,44q0,18.17,0,36.33A8.39,8.39,0,0,0,25.56,89h14.7v3.36c-1.71,0-3.35,0-5,0a5,5,0,0,0-5,5c0,1.08,0,2.17,0,3.25a5,5,0,0,0,5.18,5.17c1.75,0,3.5,0,5.25,0H71.76c3.48,0,5.52-2.06,5.53-5.56,0-.18,0-.36,0-.53.45-5.53-1.94-7.78-7.31-7.36-.89.07-1.79,0-2.7,0V89H68.5c4.66,0,9.32,0,14,0a8.27,8.27,0,0,0,8.24-8.14q.08-18.74,0-37.48A8.25,8.25,0,0,0,85,35.71c-2.52-.82-5.11-.31-7.65-.45v3.37h4.39c3.57,0,5.6,2,5.6,5.59q0,13.44,0,26.88v1H84V62.2c0-5.53,0-11.06,0-16.59,0-1.81-.93-3.25-2.55-3.49a27,27,0,0,0-4.12,0v3.33h3.21V72.14H77.29V48.65H74V47.43l0-10.6V22.23c0-1.24.49-2,1.49-2.05,1.21-.08,2.42,0,3.62,0,1.45,8.28,8.32,12.25,14.53,11.7A13.45,13.45,0,0,0,95,5.25,13.18,13.18,0,0,0,85.47,7a13.49,13.49,0,0,0-6.41,9.8H76.18c-3.58,0-5.61,2-5.61,5.59q0,10.18,0,20.37v5.88H55.51V28.47C63.8,27,67.71,20.11,67.16,13.94a13.45,13.45,0,0,0-26.6-1.38,13.15,13.15,0,0,0,1.72,9.49A13.47,13.47,0,0,0,52,28.44V48.68c-2.88,0-5.68.09-8.47,0a4.06,4.06,0,0,0-3.82,1.58c-.73,1-1.6,1.79-2.41,2.69L37,52.68V51.55l0-29.29c0-3.41-2.08-5.47-5.51-5.48h-3A13.57,13.57,0,0,0,14.24,5,13.44,13.44,0,0,0,12.31,31.6a12.83,12.83,0,0,0,9.14-1.32,13.48,13.48,0,0,0,7-10.14h2.7c1.93,0,2.42.49,2.42,2.41,0,10-.12,20,0,30,0,2.74-.45,4.89-2.74,6.48a1.79,1.79,0,0,0-.7,1.63c0,5.67,0,11.34,0,17v1.17ZM67.2,42.05H58.86V45.3H67.2Zm-18.49,0H40.37V45.3h8.34Zm18.47-6.71H58.85v3.23h8.33ZM40.36,38.56h8.29V35.32H40.36Z"/><path d="M27,78.87h3.25V77.7c0-5.67,0-11.34,0-17a1.79,1.79,0,0,1,.7-1.63c2.29-1.59,2.79-3.74,2.74-6.48-.16-10,0-20,0-30,0-1.92-.49-2.41-2.42-2.41h-2.7a13.48,13.48,0,0,1-7,10.14,12.83,12.83,0,0,1-9.14,1.32A13.44,13.44,0,1,1,28.47,16.78h3c3.43,0,5.51,2.07,5.51,5.48l0,29.29v1.13l.31.23c.81-.9,1.68-1.74,2.41-2.69a4.06,4.06,0,0,1,3.82-1.58c2.79.13,5.59,0,8.47,0V28.44a13.47,13.47,0,0,1-9.72-6.39,13.15,13.15,0,0,1-1.72-9.49,13.45,13.45,0,0,1,26.6,1.38C67.71,20.11,63.8,27,55.51,28.47V48.62H70.56V42.74q0-10.18,0-20.37c0-3.56,2-5.58,5.61-5.59h2.88A13.49,13.49,0,0,1,85.47,7,13.18,13.18,0,0,1,95,5.25a13.45,13.45,0,0,1-1.38,26.61c-6.21.55-13.08-3.42-14.53-11.7-1.2,0-2.41-.06-3.62,0-1,.06-1.48.81-1.49,2.05v14.6l0,10.6v1.22h3.33V72.14h3.27V45.41H77.35V42.08a27,27,0,0,1,4.12,0c1.62.24,2.55,1.68,2.55,3.49,0,5.53,0,11.06,0,16.59v9.94h3.35v-1q0-13.44,0-26.88c0-3.56-2-5.58-5.6-5.59H77.37V35.26c2.54.14,5.13-.37,7.65.45a8.25,8.25,0,0,1,5.69,7.68q.06,18.74,0,37.48A8.27,8.27,0,0,1,82.47,89c-4.65,0-9.31,0-14,0H67.28v3.36c.91,0,1.81.06,2.7,0,5.37-.42,7.76,1.83,7.31,7.36,0,.17,0,.35,0,.53,0,3.5-2.05,5.56-5.53,5.56H40.67c-1.75,0-3.5,0-5.25,0a5,5,0,0,1-5.18-5.17c0-1.08,0-2.17,0-3.25a5,5,0,0,1,5-5c1.64,0,3.28,0,5,0V89H25.56a8.39,8.39,0,0,1-8.76-8.7q0-18.16,0-36.33a8.4,8.4,0,0,1,8.74-8.73h4.65v3.37c-1.64,0-3.31,0-5,0a5,5,0,0,0-5,4.15,6.86,6.86,0,0,0-.09,1.36v36c0,3.42,2.07,5.49,5.49,5.5H60.4V82.32H27.45c-2.65,0-3.94-1.28-3.94-3.92V45.85c0-2.56,1.31-3.87,3.87-3.88h2.8v3.38H27ZM43.72,62.21h-10V78.86H60.47c0-1.07,0-2.08,0-3.09A3.38,3.38,0,0,1,64,72.21h9.82V52.14H43.72Zm20.2,23.4c6.36,0,12.61.06,18.87,0A4.43,4.43,0,0,0,87.07,82a57.78,57.78,0,0,0,.36-6.32H63.92Zm3.5,10.2c-.68,2.31-1.83,3.35-3.78,3.35q-9.87,0-19.74,0a3.57,3.57,0,0,1-3.62-2.88c0-.16-.11-.31-.16-.47-1.57,0-3.07,0-4.57,0a1.72,1.72,0,0,0-1.88,1.9c0,.73,0,1.47,0,2.2,0,2,.49,2.49,2.47,2.49H71.4a5.72,5.72,0,0,0,.83,0,1.64,1.64,0,0,0,1.62-1.62,29,29,0,0,0,0-3.36,1.57,1.57,0,0,0-1.64-1.58C70.6,95.78,69,95.81,67.42,95.81Zm-3.66-6.68h-20v6.49h20Zm25.82-74a11.31,11.31,0,0,0,0,6.57h5.68a11.31,11.31,0,0,0,0-6.57ZM50.93,11.79a11.21,11.21,0,0,0,0,6.59h5.68a11.13,11.13,0,0,0,0-6.59ZM18,15.18H12.27a11.36,11.36,0,0,0,0,6.56H18A11.36,11.36,0,0,0,18,15.18Zm29.19,3.25V11.77c-.68,0-1.38,0-2.07,0s-1,.15-1,.76c-.07,1.52-.15,3-.15,4.56,0,1.06.55,1.55,1.67,1.37A8.8,8.8,0,0,1,47.15,18.43Zm38.65-3.3a22.82,22.82,0,0,0-2.33,0,1,1,0,0,0-.68.57,8.93,8.93,0,0,0,0,5.46c.07.24.36.56.57.57.85.07,1.71,0,2.44,0Zm-77.3,0c-.71,0-1.51,0-2.3,0a1,1,0,0,0-.7.55,9,9,0,0,0,0,5.55.9.9,0,0,0,.63.51c.82.06,1.65,0,2.36,0ZM99,21.79a21,21,0,0,0,2.24,0,1.14,1.14,0,0,0,.77-.59,8.86,8.86,0,0,0,0-5.46,1,1,0,0,0-.69-.56c-.79-.07-1.59,0-2.32,0Zm-77.3,0c.74,0,1.51.05,2.27,0a1,1,0,0,0,.72-.52,8.92,8.92,0,0,0,0-5.55.87.87,0,0,0-.6-.54c-.82-.07-1.66,0-2.4,0Zm38.63-3.36c.71,0,1.52.05,2.31,0a1,1,0,0,0,.71-.54,9,9,0,0,0-.17-6H60.36ZM40.22,55.26l-3.41,3.42c.84,0,1.81,0,2.78,0a.93.93,0,0,0,.6-.63C40.26,57.06,40.22,56.1,40.22,55.26ZM55.29,8.33,53.75,6c-.54.87-1,1.55-1.44,2.34Zm37.13,1L91,11.65h2.91ZM15.12,27.58c.53-.86,1-1.54,1.46-2.33H13.64ZM93.87,25.3H90.94c.52.8,1,1.47,1.49,2.25C93,26.72,93.38,26.08,93.87,25.3ZM55.23,21.94H52.29l1.47,2.24ZM15.12,9.33l-1.44,2.31h2.9ZM61.25,22c-2.36-.27-2.51-.15-3.21,2.35ZM49.49,6.24,49.3,6l-3,2.22C48.43,8.49,48.43,8.49,49.49,6.24ZM58.24,6c.74,2.48.85,2.57,2.9,2.15ZM7.69,11.57c2.52.26,2,.47,3-2.2Zm11.89-2.2c.78,2.5.93,2.6,2.9,2.15ZM88,9.37l-3,2.21C87.49,11.82,87,12.07,88,9.37ZM19.4,27.3l.18.25,3-2.2C20.48,25.06,20.48,25.06,19.4,27.3Zm65.76-1.78,2.83,2C87.13,25.1,87.13,25.1,85.16,25.52Zm11.54,1.8.18.23,3-2.22C97.75,25.08,97.75,25.08,96.7,27.32ZM49.3,24.19c-.9-2.6-1-2.66-2.87-2.12ZM7.66,25.35l3,2.18C9.77,25.06,9.77,25.06,7.66,25.35Zm89.21-16c1,2.67.45,2.46,3,2.2Z"/><path d="M67.2,42.05V45.3H58.86V42.05Z"/><path d="M48.71,42.05V45.3H40.37V42.05Z"/><path d="M67.18,35.34v3.23H58.85V35.34Z"/><path d="M40.36,38.56V35.32h8.29v3.24Z"/><path class="cls-1" d="M43.72,62.21V52.14H73.85V72.21H64a3.38,3.38,0,0,0-3.56,3.56c0,1,0,2,0,3.09H33.7V62.21ZM37,68.8H70.5V65.57H37Zm10.08-6.71H70.52V58.84H47.07ZM37,75.53h3.29V72.28H37Zm6.77-3.28v3.27H47V72.25Zm10,3.31V72.29H50.47v3.27Z"/><path class="cls-1" d="M63.92,85.61V75.69H87.43A57.78,57.78,0,0,1,87.07,82a4.43,4.43,0,0,1-4.28,3.56C76.53,85.67,70.28,85.61,63.92,85.61Zm3.31-3.35h3.3V79h-3.3Zm6.7,0h3.34V79H73.93ZM80.7,79v3.3H84V79Z"/><path class="cls-1" d="M67.42,95.81c1.58,0,3.18,0,4.78,0a1.57,1.57,0,0,1,1.64,1.58,29,29,0,0,1,0,3.36,1.64,1.64,0,0,1-1.62,1.62,5.72,5.72,0,0,1-.83,0H36.13c-2,0-2.46-.49-2.47-2.49,0-.73,0-1.47,0-2.2a1.72,1.72,0,0,1,1.88-1.9c1.5,0,3,0,4.57,0,.05.16.12.31.16.47a3.57,3.57,0,0,0,3.62,2.88q9.87,0,19.74,0C65.59,99.16,66.74,98.12,67.42,95.81Z"/><path class="cls-1" d="M63.76,89.13v6.49h-20V89.13Z"/><path class="cls-1" d="M89.58,15.17h5.67a11.31,11.31,0,0,1,0,6.57H89.58A11.31,11.31,0,0,1,89.58,15.17Z"/><path class="cls-1" d="M50.93,11.79h5.65a11.13,11.13,0,0,1,0,6.59H50.93A11.21,11.21,0,0,1,50.93,11.79Z"/><path class="cls-1" d="M18,15.18a11.36,11.36,0,0,1,0,6.56H12.28a11.36,11.36,0,0,1,0-6.56Z"/><path class="cls-1" d="M47.15,18.43a8.8,8.8,0,0,0-1.54,0c-1.12.18-1.67-.31-1.67-1.37,0-1.52.08-3,.15-4.56,0-.61.39-.8,1-.76s1.39,0,2.07,0Z"/><path class="cls-1" d="M85.8,15.13v6.66c-.73,0-1.59,0-2.44,0-.21,0-.5-.33-.57-.57a8.93,8.93,0,0,1,0-5.46,1,1,0,0,1,.68-.57A22.82,22.82,0,0,1,85.8,15.13Z"/><path class="cls-1" d="M8.5,15.13v6.66c-.71,0-1.54,0-2.36,0a.9.9,0,0,1-.63-.51,9,9,0,0,1,0-5.55,1,1,0,0,1,.7-.55C7,15.09,7.79,15.13,8.5,15.13Z"/><path class="cls-1" d="M99,21.79V15.13c.73,0,1.53,0,2.32,0a1,1,0,0,1,.69.56,8.86,8.86,0,0,1,0,5.46,1.14,1.14,0,0,1-.77.59A21,21,0,0,1,99,21.79Z"/><path class="cls-1" d="M21.73,21.79V15.13c.74,0,1.58,0,2.4,0a.87.87,0,0,1,.6.54,8.92,8.92,0,0,1,0,5.55,1,1,0,0,1-.72.52C23.24,21.84,22.47,21.79,21.73,21.79Z"/><path class="cls-1" d="M60.36,18.43V11.84h2.85a9,9,0,0,1,.17,6,1,1,0,0,1-.71.54C61.88,18.48,61.07,18.43,60.36,18.43Z"/><path class="cls-1" d="M40.22,55.26c0,.84,0,1.8,0,2.76a.93.93,0,0,1-.6.63c-1,.07-1.94,0-2.78,0Z"/><path class="cls-1" d="M55.29,8.33h-3c.48-.79.9-1.47,1.44-2.34Z"/><path class="cls-1" d="M92.42,9.33l1.46,2.32H91Z"/><path class="cls-1" d="M15.12,27.58l-1.48-2.33h2.94C16.08,26,15.65,26.72,15.12,27.58Z"/><path class="cls-1" d="M93.87,25.3c-.49.78-.91,1.42-1.44,2.25-.52-.78-1-1.45-1.49-2.25Z"/><path class="cls-1" d="M55.23,21.94l-1.47,2.24-1.47-2.24Z"/><path class="cls-1" d="M15.12,9.33l1.46,2.31h-2.9Z"/><path class="cls-1" d="M61.25,22,58,24.32C58.74,21.82,58.89,21.7,61.25,22Z"/><path class="cls-1" d="M49.49,6.24c-1.06,2.25-1.06,2.25-3.17,2L49.3,6Z"/><path class="cls-1" d="M58.24,6l2.9,2.15C59.09,8.59,59,8.5,58.24,6Z"/><path class="cls-1" d="M7.69,11.57l3-2.2C9.67,12,10.21,11.83,7.69,11.57Z"/><path class="cls-1" d="M19.58,9.37l2.9,2.15C20.51,12,20.36,11.87,19.58,9.37Z"/><path class="cls-1" d="M88,9.37c-1,2.7-.47,2.45-3,2.21Z"/><path class="cls-1" d="M19.4,27.3c1.08-2.24,1.08-2.24,3.14-1.95l-3,2.2Z"/><path class="cls-1" d="M85.16,25.52c2-.42,2-.42,2.83,2Z"/><path class="cls-1" d="M96.7,27.32c1-2.24,1-2.24,3.16-2l-3,2.22Z"/><path class="cls-1" d="M49.3,24.19l-2.87-2.12C48.31,21.53,48.4,21.59,49.3,24.19Z"/><path class="cls-1" d="M7.66,25.35c2.11-.29,2.11-.29,3,2.18Z"/><path class="cls-1" d="M96.87,9.37l3,2.2C97.32,11.83,97.86,12,96.87,9.37Z"/><path d="M37,68.8V65.57H70.5V68.8Z"/><path d="M47.07,62.09V58.84H70.52v3.25Z"/><path d="M37,75.53V72.28h3.29v3.25Z"/><path d="M43.75,72.25H47v3.27H43.75Z"/><path d="M53.7,75.56H50.47V72.29H53.7Z"/><path d="M67.23,82.26V79h3.3v3.28Z"/><path d="M73.93,82.28V79h3.34v3.29Z"/><path d="M80.7,79H84v3.3H80.7Z"/></g></g></svg>