<svg xmlns="http://www.w3.org/2000/svg" viewBox="0 0 33.54 33.38"><defs><style>.cls-1{fill:#173458;stroke:#173458;stroke-miterlimit:10;stroke-width:0.63px;}</style></defs><title>Asset 108</title><g id="Layer_2" data-name="Layer 2"><g id="Capa_1" data-name="Capa 1"><path class="cls-1" d="M33.22,5.4a3.92,3.92,0,0,1-.27.92A5.86,5.86,0,0,1,32,7.66q-7.17,7.23-14.39,14.41a1.51,1.51,0,0,1-.65.37c-2.2.63-4.41,1.24-6.61,1.85C9.55,24.52,9,24,9.26,23.17q.9-3.32,1.84-6.61a1.56,1.56,0,0,1,.37-.65q7.2-7.23,14.42-14.43a3.68,3.68,0,0,1,5.37,0l.81.82a3.68,3.68,0,0,1,1.1,2.09.37.37,0,0,0,0,.11ZM17,20.34,28.87,8.47,25.08,4.68,13.2,16.55Zm9.27-17,3.83,3.83a13,13,0,0,0,1-1,2,2,0,0,0,0-2.51A10.52,10.52,0,0,0,29.8,2.4a1.78,1.78,0,0,0-2.1-.21A10.22,10.22,0,0,0,26.26,3.36Zm-15.08,19,4.19-1.16-3-3C12,19.54,11.58,20.92,11.18,22.37Z"/><path class="cls-1" d="M15.9,33.06H4.56a4.05,4.05,0,0,1-4-2.78,4.39,4.39,0,0,1-.22-1.39q0-10.6,0-21.21A4.07,4.07,0,0,1,4.46,3.52c2.38,0,4.75,0,7.13,0a.83.83,0,0,1,.92.82.85.85,0,0,1-.93.81h-7A2.44,2.44,0,0,0,2,7,3,3,0,0,0,2,7.83V28.75A2.46,2.46,0,0,0,3.8,31.33a3,3,0,0,0,.79.09H27.24a2.49,2.49,0,0,0,2.63-2.65v-7a.84.84,0,0,1,.68-.91.81.81,0,0,1,.95.86v3.86c0,1.19,0,2.38,0,3.56A4,4,0,0,1,27.63,33c-2.37,0-4.74,0-7.1,0Z"/></g></g></svg>