<svg xmlns="http://www.w3.org/2000/svg" xmlns:xlink="http://www.w3.org/1999/xlink" viewBox="0 0 139.72 141.22"><defs><style>.cls-1{fill:none;}.cls-2{clip-path:url(#clip-path);}.cls-3{fill:#f5f5f5;}.cls-4{fill:#331b19;}.cls-5{fill:#f8ba8c;}.cls-6{fill:#2d262c;}.cls-7{fill:#ccd3c4;}.cls-8{fill:#d2a079;}.cls-9{fill:#402423;}.cls-10{fill:#352e35;}</style><clipPath id="clip-path" transform="translate(0 0)"><path id="SVGID" class="cls-1" d="M0,69.86A69.86,69.86,0,1,0,69.86,0,69.86,69.86,0,0,0,0,69.86"/></clipPath></defs><title>Asset 109</title><g id="Layer_2" data-name="Layer 2"><g id="Capa_1" data-name="Capa 1"><g class="cls-2"><path class="cls-3" d="M139.72,69.86A69.86,69.86,0,1,1,69.86,0a69.86,69.86,0,0,1,69.86,69.86" transform="translate(0 0)"/><path class="cls-3" d="M139.72,69.86A69.86,69.86,0,1,1,69.86,0a69.86,69.86,0,0,1,69.86,69.86" transform="translate(0 0)"/><path class="cls-4" d="M39.16,70.27s6,24,33.53,24,31.3-24,31.3-24" transform="translate(0 0)"/><path class="cls-5" d="M98.87,73.32c-1.9-.59-5.32-2.25-5.8-4.94-.41-2.33-.75-5.76-.23-7.3,1.3-3.9,5-4.11,7.55-5.84,4.24-2.85,6.55-1.38,7.5,2.4s-2.74,17.65-9,15.68" transform="translate(0 0)"/><path class="cls-5" d="M44.66,73.32c1.89-.59,5.32-2.25,5.8-4.94.41-2.33.75-5.76.23-7.3-1.31-3.9-5-4.11-7.55-5.84-4.24-2.84-6.56-1.38-7.5,2.4s2.73,17.65,9,15.68" transform="translate(0 0)"/><path class="cls-6" d="M115.34,141.22c1.49-14.67,1.86-27.61-1-30.3-7.5-7.14-25.35-8.57-25.35-8.57H53s-16.4.54-24.2,8.57c-1.9,2-1.4,15.18-.13,30.3Z" transform="translate(0 0)"/><polygon class="cls-7" points="49.83 105.86 53.04 102.35 89.01 102.35 93.56 105.26 71.29 130.53 49.83 105.86"/><polygon class="cls-5" points="83.64 92.16 58.93 92.16 53.06 105.54 71.29 125.17 89.52 105.54 83.64 92.16"/><path class="cls-8" d="M83.87,110.57c-3,3.19-5.44,6.89-9.42,9-4.82,2.57-7.74-2.07-10.75-5-2-1.89-4-3.53-6.17-5.22a45.57,45.57,0,0,0-3.85-3.16l17.61,19L87.19,108a14.28,14.28,0,0,0-3.32,2.53" transform="translate(0 0)"/><path class="cls-8" d="M70.24,103.14c6.82,0,13.17-7.22,14.46-8.56l-1.06-2.42H58.93l-.88,2c.42.47,6.8,9,12.19,9" transform="translate(0 0)"/><path class="cls-5" d="M99.08,75.21c-3,12.19-19.32,25-28.21,25C63,100.19,47,86.48,45.25,75.5c-1.54-9.51-2.84-23.58-.89-29.88C49.3,29.67,60.72,21.73,72.81,21.73c11.64,0,21.6,7.86,26.75,22.86,2.3,6.72,1.88,21-.48,30.62" transform="translate(0 0)"/><path class="cls-9" d="M48.14,67.81C46.89,58.47,57,53.3,53.88,42.73c9.51-6.3,16.58,6.7,38.69,11,4.93,1,4.29,5.82,3.81,14.29a4.89,4.89,0,0,0,2.73-3.86c.17-2.87.52-6.11,2-7.52,4.4-4.28,6-1.57,6.6.24,1.79-7.75,2-14.91.44-21.14,3.28.28,4.87-2.19,6.28-5.36-11.63,5.29-22.93-16.4-38-18.32C62,10.24,44.63,16.31,41,29.76c-6.56,2-5.83,15.47-4.79,26.32,1.89-3.3,4.58-2.92,7,.24,1.38,1.77,2.57,10.11,2.57,10.11a4.49,4.49,0,0,0,2.36,1.38" transform="translate(0 0)"/><path class="cls-10" d="M37.22,141.22c.1-5.34.34-31.44-3.83-33.11-5.06,0-15.67,17.28-21.73,33.11Z" transform="translate(0 0)"/><path class="cls-10" d="M132.06,141.22c-6.29-15.83-17.23-33.11-22.29-33.11-4.17,1.67-3.31,27.77-3.08,33.11Z" transform="translate(0 0)"/></g></g></g></svg>