<svg xmlns="http://www.w3.org/2000/svg" viewBox="0 0 124.78 120.7"><defs><style>.cls-1-house{fill:#fabb39;}.cls-2{fill:#fff;stroke:#fff;stroke-miterlimit:10;stroke-width:1.01px;}</style></defs><title>Asset 98</title><g id="Layer_2" data-name="Layer 2"><g id="Capa_1" data-name="Capa 1"><path class="cls-1-house" d="M62.39,0c2,0,4.08.1,6.12.29s4,.48,6,.87,4,.86,5.94,1.44,3.88,1.24,5.77,2S90,6.19,91.8,7.13s3.56,1.94,5.26,3,3.33,2.27,4.91,3.53,3.09,2.58,4.54,4,2.82,2.86,4.11,4.38,2.51,3.12,3.65,4.76,2.18,3.34,3.15,5.08,1.83,3.53,2.61,5.35a59.37,59.37,0,0,1,2.07,5.58q.89,2.84,1.49,5.75c.39,1.93.69,3.89.89,5.85a58.46,58.46,0,0,1,0,11.83q-.3,3-.89,5.86t-1.49,5.75A58.17,58.17,0,0,1,120,83.44c-.78,1.83-1.65,3.61-2.61,5.36s-2,3.43-3.15,5.08a59.85,59.85,0,0,1-3.65,4.75c-1.29,1.53-2.67,3-4.11,4.39s-3,2.73-4.54,4-3.22,2.43-4.91,3.53-3.45,2.11-5.26,3-3.64,1.78-5.53,2.53-3.81,1.43-5.77,2-3.93,1.05-5.94,1.44-4,.67-6,.87-4.07.29-6.12.29-4.08-.1-6.11-.29-4.06-.49-6.06-.87-4-.87-5.94-1.44-3.88-1.24-5.76-2-3.74-1.6-5.54-2.53-3.55-1.94-5.25-3-3.34-2.28-4.92-3.53-3.09-2.58-4.54-4-2.81-2.86-4.11-4.39-2.51-3.11-3.65-4.75S8.33,90.54,7.37,88.8A59.3,59.3,0,0,1,2.69,77.87,57.09,57.09,0,0,1,1.2,72.12a58.24,58.24,0,0,1,0-23.54,57.09,57.09,0,0,1,1.49-5.75,59.29,59.29,0,0,1,2.06-5.58A57.51,57.51,0,0,1,7.37,31.9c1-1.74,2-3.44,3.14-5.08s2.36-3.23,3.65-4.76,2.67-3,4.11-4.38,3-2.73,4.54-4,3.22-2.43,4.92-3.53,3.45-2.11,5.25-3,3.65-1.78,5.54-2.54,3.81-1.42,5.76-2,3.94-1,5.94-1.44,4-.68,6.06-.87S60.35,0,62.39,0Z"/><path class="cls-2" d="M86.07,21.89H79.74c0,.33,0,.64,0,.95,0,2.12,0,4.25,0,6.37s-1.49,3-3.46,2.05C71.79,29.2,67.36,27.15,63,25.07a1.79,1.79,0,0,0-1.71,0Q43.32,33.5,25.35,41.9a2.66,2.66,0,0,1-2.2.31,1.74,1.74,0,0,1-1.3-1.66,4.09,4.09,0,0,1,.79-1.76c.17-.26.6-.39.93-.55q18-8.45,36.05-16.91a5.36,5.36,0,0,1,4.93,0c3.3,1.59,6.64,3.11,10,4.65.27.13.55.24,1,.42,0-1.68.09-3.26,0-4.83-.13-2.08,1.25-3.78,3.86-3.74,2.4,0,4.81,0,7.22,0s3.78,1.26,3.79,3.68c0,3.66,0,7.32,0,11a1.25,1.25,0,0,0,.88,1.32c3.41,1.57,6.8,3.19,10.2,4.79a2.25,2.25,0,0,1,1.54,1.81,2,2,0,0,1-2.59,2.14,6.79,6.79,0,0,1-.94-.37c-3.86-1.82-7.71-3.67-11.6-5.45a2.62,2.62,0,0,1-1.73-2.64c0-3.71,0-7.43,0-11.15Z"/><path class="cls-2" d="M62.49,102.88H51.66c-2.81,0-4.3-1.41-4.29-4.09,0-3-.1-5.91.18-8.84a9.85,9.85,0,0,1,9.69-8.59c3.58-.1,7.16-.09,10.74,0a9.88,9.88,0,0,1,9.68,9.47c.07,2.74,0,5.48,0,8.23a3.65,3.65,0,0,1-4,3.82C70,102.89,66.22,102.88,62.49,102.88ZM73.62,99c0-3,.12-5.85,0-8.73-.14-2.66-2.85-5-5.64-5-3.54,0-7.09-.06-10.64,0a5.91,5.91,0,0,0-5,2.87,7.81,7.81,0,0,0-.92,4.61c0,2.09,0,4.17,0,6.29h1.72V98c0-2.09,0-4.18,0-6.28,0-1.27.67-2,1.68-2s1.59.77,1.59,2q0,3.22,0,6.45V99H69.34V98c0-2.06,0-4.13,0-6.19,0-1.42.54-2.16,1.58-2.18s1.62.75,1.62,2.22,0,3,0,4.42V99Z"/><path class="cls-2" d="M34,82.48V76.7c0-1.83,0-3.66,0-5.49a1.67,1.67,0,0,1,1.66-1.85,1.65,1.65,0,0,1,1.62,1.88c0,3.4,0,6.79,0,10.18v1.06c.82,0,1.55,0,2.28,0,2.1,0,4.2,0,6.29.07a1.86,1.86,0,0,1,1.8,1.89,2,2,0,0,1-1.93,1.82H30.49a4.08,4.08,0,0,1-4.25-4c0-4.1-.06-8.2,0-12.3.1-5.61,5.34-11.11,11.2-11.82A32.45,32.45,0,0,1,41.14,58c4,0,8,0,11.93,0a13.91,13.91,0,0,1,7.36,2,1.93,1.93,0,0,1,.93,2.77,2,2,0,0,1-2.9.51,11.17,11.17,0,0,0-6.08-1.46c-4.5,0-9,0-13.5.09-4.33.13-8.36,3.85-8.57,8-.21,4-.11,8-.15,11.94,0,.46.17.72.69.72C31.86,82.47,32.88,82.48,34,82.48Z"/><path class="cls-2" d="M90.15,91a68.48,68.48,0,0,1,.06-7c.17-1.64-1.31-3.94,1.6-4.79,2.88.89,1.38,3.18,1.55,4.83A64.06,64.06,0,0,1,93.43,91h2.24a3.34,3.34,0,0,0,.09-.52c0-3.6,0-7.2-.12-10.79-.11-3.4-3.63-6.77-7.15-6.85-4.6-.11-9.19-.07-13.79-.11a4.36,4.36,0,0,1-1.35-.18,1.86,1.86,0,0,1-1.17-1.92A2,2,0,0,1,74,68.94a4.54,4.54,0,0,1,.74,0c4.35,0,8.7,0,13,0,6.54,0,11.93,5.16,12,11.42,0,3.51,0,7,0,10.53a3.81,3.81,0,0,1-3.79,3.9c-1.63.11-3.27.06-4.9.06-3,0-6,0-9,0a5.3,5.3,0,0,1-1.54-.2,1.82,1.82,0,0,1-1.12-2,1.93,1.93,0,0,1,2-1.55c2.56,0,5.12,0,7.68,0Z"/><path class="cls-2" d="M56.84,46.17a10.22,10.22,0,0,1-20.42-.06,10.22,10.22,0,0,1,20.42.06Zm-16.41,0a6.05,6.05,0,0,0,6.1,6,5.95,5.95,0,1,0,.14-11.88A6.05,6.05,0,0,0,40.43,46.14Z"/><path class="cls-2" d="M72.08,58a9.4,9.4,0,0,1,18.78.74c-.24,4.48-4.66,8.49-9.5,8.4C76.21,67,72,62.82,72.08,58Zm9.37,5.3A5.17,5.17,0,1,0,76,58.07,5.32,5.32,0,0,0,81.45,63.26Z"/><path class="cls-2" d="M62.71,79.91a7.54,7.54,0,1,1,0-15.07,7.54,7.54,0,1,1,0,15.07Zm3.9-7.55a3.91,3.91,0,0,0-7.81,0,3.91,3.91,0,0,0,7.81,0Z"/></g></g></svg>