<svg xmlns="http://www.w3.org/2000/svg" viewBox="0 0 124.78 120.7"><defs><style>.cls-1-bienes{fill:#444a99;}.cls-2{fill:#fcfcfc;}</style></defs><title>Asset 99</title><g id="Layer_2" data-name="Layer 2"><g id="Capa_1" data-name="Capa 1"><path class="cls-1-bienes" d="M62.39,0c2,0,4.08.1,6.12.29s4,.48,6,.87,4,.86,5.94,1.44,3.88,1.24,5.77,2S90,6.19,91.8,7.13s3.56,1.94,5.26,3,3.33,2.27,4.91,3.53,3.09,2.58,4.54,4,2.82,2.86,4.11,4.38,2.51,3.12,3.65,4.76,2.18,3.34,3.15,5.08,1.83,3.53,2.61,5.35a59.37,59.37,0,0,1,2.07,5.58q.89,2.84,1.49,5.75c.39,1.93.69,3.89.89,5.85a58.46,58.46,0,0,1,0,11.83q-.3,3-.89,5.86t-1.49,5.75A58.17,58.17,0,0,1,120,83.44c-.78,1.83-1.65,3.61-2.61,5.36s-2,3.43-3.15,5.08a59.85,59.85,0,0,1-3.65,4.75c-1.29,1.53-2.67,3-4.11,4.39s-3,2.73-4.54,4-3.22,2.43-4.91,3.53-3.45,2.11-5.26,3-3.64,1.78-5.53,2.53-3.81,1.43-5.77,2-3.93,1.05-5.94,1.44-4,.67-6,.87-4.07.29-6.12.29-4.08-.1-6.11-.29-4.06-.49-6.06-.87-4-.87-5.94-1.44-3.88-1.24-5.76-2-3.74-1.6-5.54-2.53-3.55-1.94-5.25-3-3.34-2.28-4.92-3.53-3.09-2.58-4.54-4-2.81-2.86-4.11-4.39-2.51-3.11-3.65-4.75S8.33,90.54,7.37,88.8A59.3,59.3,0,0,1,2.69,77.87,57.09,57.09,0,0,1,1.2,72.12a58.24,58.24,0,0,1,0-23.54,57.09,57.09,0,0,1,1.49-5.75,59.29,59.29,0,0,1,2.06-5.58A57.51,57.51,0,0,1,7.37,31.9c1-1.74,2-3.44,3.14-5.08s2.36-3.23,3.65-4.76,2.67-3,4.11-4.38,3-2.73,4.54-4,3.22-2.43,4.92-3.53,3.45-2.11,5.25-3,3.65-1.78,5.54-2.54,3.81-1.42,5.76-2,3.94-1,5.94-1.44,4-.68,6.06-.87S60.35,0,62.39,0Z"/><path class="cls-2" d="M88.7,18a22.68,22.68,0,0,1,2.31.84,7.62,7.62,0,0,1,4.6,7c0,3,0,5.91,0,8.86a1.06,1.06,0,0,0,.55,1,7.8,7.8,0,0,1,3.39,8.56,8.88,8.88,0,0,1-7.2,6.47c-.71.1-1.42.15-2.27.23v.83c0,4.61,0,9.21,0,13.82a2.69,2.69,0,0,1-2.33,2.67,2.81,2.81,0,0,1-3.09-1.85,3.79,3.79,0,0,1-.11-1.06c0-5.27,0-10.54,0-15.81a1.1,1.1,0,0,0-.69-1.16Q74,43.15,64.11,37.83a3.41,3.41,0,0,0-3.5,0Q50.8,43.15,40.94,48.38a1.17,1.17,0,0,0-.74,1.21c0,4.91,0,9.82,0,14.74A2.69,2.69,0,0,1,37.92,67a2.8,2.8,0,0,1-3.14-1.88,3.24,3.24,0,0,1-.1-1q0-6.14,0-12.25v-1a9.83,9.83,0,0,1-6.21-1.82,8.07,8.07,0,0,1,.95-13.87L58.06,19.86a8.68,8.68,0,0,1,8.64,0c3.8,2,7.59,4.06,11.39,6.09.26.14.54.27.73.36a21.47,21.47,0,0,1,.73-3.21A7.87,7.87,0,0,1,85,18.27c.32-.09.64-.21,1-.32Zm2,27.69a3.61,3.61,0,0,0,3.37-2.53c.41-1.47-.08-2.5-1.64-3.34Q78.24,32.17,64,24.54a3.12,3.12,0,0,0-3.18-.06Q46.49,32.17,32.13,39.87a2.75,2.75,0,0,0-.76,4.5,3.57,3.57,0,0,0,4.62.55C43.26,41,50.53,37.17,57.77,33.25a9.08,9.08,0,0,1,9.18,0q10.88,5.87,21.78,11.67A16.17,16.17,0,0,0,90.71,45.64Zm-.66-13.28c0-2.34.09-4.56,0-6.78a2.65,2.65,0,0,0-2.79-2.32,2.7,2.7,0,0,0-2.66,2.48c-.08,1.1,0,2.2,0,3.31a.67.67,0,0,0,.3.51C86.55,30.49,88.25,31.4,90.05,32.36Z"/><path class="cls-2" d="M80.14,83.55,86.05,77c1.16-1.3,2.3-2.62,3.49-3.89A8.14,8.14,0,0,1,98,70.57a7.44,7.44,0,0,1,5.87,6.17A7,7,0,0,1,101.92,83c-4.11,4.44-8.21,8.89-12.36,13.3a13.84,13.84,0,0,1-10.5,4.42c-5.77,0-11.54,0-17.31,0a26.69,26.69,0,0,1-10.44-2c-4.43-1.85-9.06-2.08-13.87-1.81,0,1,0,2,0,3.06a2.65,2.65,0,0,1-2.84,2.7c-3.66,0-7.33,0-11,0a2.65,2.65,0,0,1-2.78-2.66q0-13.24,0-26.49A2.62,2.62,0,0,1,23.63,71c3.64,0,7.27,0,10.91,0a2.67,2.67,0,0,1,2.9,2.8v1.07c.89-.36,1.69-.71,2.51-1a27.81,27.81,0,0,1,12.21-1.58,22.37,22.37,0,0,1,10,2.73A7.84,7.84,0,0,0,66.57,76c2-.06,3.93,0,5.88,0A8,8,0,0,1,80,83.18C80.05,83.25,80.08,83.32,80.14,83.55Zm-5.71,1.51c.44-2.28-.8-3.85-3.36-3.73s-5.19,0-7.79,0a4,4,0,0,1-2.39-.8,14.82,14.82,0,0,0-3-1.67,23.75,23.75,0,0,0-14.08-.72,11.63,11.63,0,0,0-5.47,2.68,2.82,2.82,0,0,0-1,2.21c0,2.54,0,5.08,0,7.62v.84c1.13,0,2.14,0,3.15,0A31.86,31.86,0,0,1,53.22,93.8a24.14,24.14,0,0,0,9.1,1.65c5.46,0,10.91,0,16.36,0a8.9,8.9,0,0,0,6.95-2.93c2.11-2.3,4.25-4.58,6.38-6.87q2.85-3.06,5.69-6.13a2.15,2.15,0,0,0,.48-2.45,2.45,2.45,0,0,0-2.06-1.46,3,3,0,0,0-2.64,1.28c-3.68,4.11-7.37,8.19-11,12.31a3.36,3.36,0,0,1-2.62,1.23H59.66a3,3,0,0,1-2.32-.94,2.47,2.47,0,0,1-.44-2.86,2.76,2.76,0,0,1,2.71-1.58c4.58,0,9.17,0,13.76,0ZM31.87,76.29H26.41V97.38h5.46Z"/><path class="cls-2" d="M60.91,58l5.2-5c.45-.43.88-.88,1.36-1.28a2.82,2.82,0,0,1,3.82.14,2.48,2.48,0,0,1,.1,3.59q-4.24,4.14-8.57,8.2a2.71,2.71,0,0,1-3.69,0c-1.46-1.34-2.89-2.7-4.28-4.1a2.52,2.52,0,0,1,.06-3.72,2.82,2.82,0,0,1,3.83,0C59.49,56.45,60.16,57.21,60.91,58Z"/></g></g></svg>