<svg xmlns="http://www.w3.org/2000/svg" viewBox="0 0 113.05 113.06"><defs><style>.cls-1{fill:#173458;}</style></defs><title>Asset 14</title><g id="Layer_2" data-name="Layer 2"><g id="Capa_1" data-name="Capa 1"><path class="cls-1" d="M22.29,0h75.3a21.82,21.82,0,0,1,3.12,1c3.91,2,5.71,5.22,5.71,9.54q0,30.89,0,61.79a2.61,2.61,0,0,0,.74,2,22.12,22.12,0,0,1,5.24,10c.24,1,.44,2.08.66,3.11v4.42c-.17.9-.32,1.8-.52,2.69a23.27,23.27,0,0,1-23.13,18.5q-32.67,0-65.35,0a10.17,10.17,0,0,1-10.59-10.54c0-1,0-1.89,0-2.93a25.67,25.67,0,0,1-3.18,0A16.49,16.49,0,0,1,6,98.71c-4.28-1.79-6.47-6-5.81-10.77a9.72,9.72,0,0,1,8.59-8.08,41.8,41.8,0,0,1,4.62,0V66.46c-1.14,0-2.2,0-3.26,0a9.8,9.8,0,0,1-6.84-2.6A9.43,9.43,0,0,1,.41,53.93a9.32,9.32,0,0,1,8-7.13,44.13,44.13,0,0,1,5-.3V33.34c-1.18,0-2.29,0-3.39,0A9.93,9.93,0,0,1,.65,19.92a10,10,0,0,1,9.51-6.45h3.3c0-1.23,0-2.3,0-3.36A9.43,9.43,0,0,1,17.59,2,26.22,26.22,0,0,1,22.29,0ZM73.7,106.43A23.68,23.68,0,0,1,66.81,92a21.46,21.46,0,0,1,3.88-15.27c7.51-10.18,17.4-12.44,29.11-8.2V10.8c0-3-1.17-4.18-4.22-4.18H23.39a3.32,3.32,0,0,0-3.3,3.31c0,1.06,0,2.13,0,3.2a1.18,1.18,0,0,0,.85,1.29,9.44,9.44,0,0,1,5.74,8.94,9.47,9.47,0,0,1-5.78,9,1.15,1.15,0,0,0-.81,1.2q0,6.36,0,12.7a1.14,1.14,0,0,0,.78,1.22,9.89,9.89,0,0,1,0,18,1.14,1.14,0,0,0-.78,1.22c0,4.12,0,8.25,0,12.37a1.53,1.53,0,0,0,1,1.64,9.39,9.39,0,0,1,5.56,8.15c.29,3.74-1.09,7-4.33,8.81a3.81,3.81,0,0,0-2.23,4.4,1.62,1.62,0,0,1,0,.22c0,2.73,1.36,4.08,4.05,4.08H73.7ZM89.88,73.09A16.67,16.67,0,1,0,106.42,89.7,16.63,16.63,0,0,0,89.88,73.09ZM13.27,26.72c1.14,0,2.28,0,3.42,0a3.3,3.3,0,1,0,0-6.6q-3.37-.06-6.73,0a3.3,3.3,0,1,0,.06,6.6C11.13,26.74,12.2,26.72,13.27,26.72Zm.08,33.12c1.14,0,2.29,0,3.42,0a3.3,3.3,0,1,0,0-6.6q-3.42-.06-6.84,0a3.3,3.3,0,1,0,0,6.6C11.07,59.87,12.21,59.84,13.35,59.84Zm0,33.12c1.14,0,2.28,0,3.42,0a3.3,3.3,0,1,0,.06-6.59c-2.28,0-4.57,0-6.85,0A3.31,3.31,0,1,0,10,93C11.11,93,12.22,93,13.32,93Z"/><path class="cls-1" d="M43.32,32c3.58-3.59,7.06-7.08,10.53-10.58a3.37,3.37,0,0,1,3.67-1.11,3.26,3.26,0,0,1,1.63,5.1,8.07,8.07,0,0,1-.74.81L46.09,38.52c-2,1.94-3.68,1.95-5.62,0l-6.86-6.86a3.36,3.36,0,0,1-1.06-3.5A3.28,3.28,0,0,1,38,26.77c1.48,1.38,2.87,2.85,4.31,4.27C42.63,31.32,42.92,31.59,43.32,32Z"/><path class="cls-1" d="M43.31,58.57c.88-.93,1.61-1.75,2.39-2.53Q49.83,51.9,54,47.78a3.31,3.31,0,1,1,4.71,4.63q-6.42,6.47-12.87,12.87a3.28,3.28,0,0,1-5.06,0q-3.61-3.56-7.18-7.18a3.31,3.31,0,1,1,4.67-4.67C39.89,55.08,41.5,56.74,43.31,58.57Z"/><path class="cls-1" d="M43.27,84.9c.33-.31.63-.57.91-.85,3.28-3.27,6.53-6.57,9.84-9.81a3.29,3.29,0,0,1,5.68,1.33,3.05,3.05,0,0,1-.84,3.14Q52.26,85.37,45.6,92A3.16,3.16,0,0,1,41,92q-3.84-3.73-7.56-7.57A3.29,3.29,0,1,1,38,79.77c1.5,1.41,2.93,2.9,4.39,4.35C42.68,84.37,43,84.61,43.27,84.9Z"/><path class="cls-1" d="M80,26.72h9.39c2.24,0,3.74,1.34,3.74,3.31s-1.5,3.31-3.74,3.31h-19c-2.25,0-3.75-1.34-3.75-3.31s1.5-3.3,3.75-3.31Z"/><path class="cls-1" d="M79.83,59.84H70.45c-2.26,0-3.75-1.33-3.77-3.29s1.5-3.33,3.73-3.33h19c2.25,0,3.75,1.32,3.76,3.29s-1.49,3.32-3.72,3.33Z"/><path class="cls-1" d="M93.17,86.34c1.19,0,2.21,0,3.24,0a3.3,3.3,0,1,1,0,6.6c-2.21,0-4.41,0-6.62,0a3.25,3.25,0,0,1-3.28-3.32c0-2.2,0-4.41,0-6.61a3.3,3.3,0,1,1,6.6,0C93.2,84.09,93.17,85.15,93.17,86.34Z"/></g></g></svg>