<svg xmlns="http://www.w3.org/2000/svg" viewBox="0 0 107.32 102.13"><defs><style>.cls-1-pagos{fill:#4db27d;}.cls-2-pagos{fill:#fff;}</style></defs><title>Asset 8</title><g id="Layer_2" data-name="Layer 2"><g id="Capa_1" data-name="Capa 1"><path class="cls-1-pagos" d="M53.66,0c1.76,0,3.51.08,5.26.25s3.48.4,5.21.73,3.42.73,5.11,1.22,3.33,1,5,1.69S77.4,5.24,79,6,82,7.68,83.47,8.61s2.87,1.92,4.23,3A50.12,50.12,0,0,1,91.6,15q1.86,1.77,3.54,3.71t3.14,4Q99.74,24.79,101,27a50.2,50.2,0,0,1,2.25,4.53A48,48,0,0,1,105,36.24c.51,1.6.93,3.22,1.28,4.86a48.86,48.86,0,0,1,0,19.93c-.35,1.64-.77,3.26-1.28,4.86a48,48,0,0,1-1.78,4.72A50.2,50.2,0,0,1,101,75.14c-.83,1.47-1.73,2.91-2.7,4.3s-2,2.73-3.14,4S92.84,86,91.6,87.18s-2.54,2.3-3.9,3.36-2.77,2.06-4.23,3-3,1.78-4.52,2.57-3.13,1.51-4.76,2.15-3.27,1.2-5,1.68-3.39.9-5.11,1.22-3.46.57-5.21.74-3.5.24-5.26.24-3.51-.08-5.26-.24-3.49-.41-5.21-.74-3.43-.73-5.11-1.22-3.33-1-5-1.68-3.21-1.36-4.76-2.15-3.05-1.64-4.51-2.57-2.87-1.93-4.23-3-2.66-2.18-3.9-3.36a49.62,49.62,0,0,1-3.54-3.72q-1.66-1.93-3.14-4a50.71,50.71,0,0,1-2.7-4.3Q5.1,72.92,4.08,70.61T2.31,65.89a48.54,48.54,0,0,1-2-9.82A48.86,48.86,0,0,1,1,41.1a48.26,48.26,0,0,1,1.28-4.86q.76-2.4,1.77-4.72T6.34,27A50.54,50.54,0,0,1,9,22.7q1.47-2.1,3.14-4A49.49,49.49,0,0,1,15.72,15a50.12,50.12,0,0,1,3.9-3.37q2-1.59,4.23-3T28.36,6q2.33-1.18,4.76-2.14c1.63-.64,3.28-1.21,5-1.69S41.47,1.31,43.19,1,46.65.41,48.4.25,51.9,0,53.66,0Z"/><path class="cls-2-pagos" d="M47.86,54a2.15,2.15,0,0,0,1.87,2.1l8.82,1.4A7.75,7.75,0,0,1,65.27,65a8.51,8.51,0,0,1-8.7,8.28v2.76h-5.8V73.29A8.5,8.5,0,0,1,42.07,65h5.8a2.83,2.83,0,0,0,2.9,2.76h5.8A2.84,2.84,0,0,0,59.47,65a2.15,2.15,0,0,0-1.87-2.09l-8.82-1.4A7.75,7.75,0,0,1,42.06,54a8.52,8.52,0,0,1,8.7-8.28V42.93h5.8v2.76A8.51,8.51,0,0,1,65.26,54h-5.8a2.84,2.84,0,0,0-2.9-2.76h-5.8A2.84,2.84,0,0,0,47.86,54Zm20.3,24.84h-29c-6.4,0-11.6-5-11.6-11,0-14.24,13.31-30.31,26.1-30.31s26.1,16.07,26.1,30.31C79.76,73.86,74.56,78.81,68.16,78.81Zm-22.6-55.2H61.75c-1.51,3.47-5.48,6.38-8.07,7.88-2.18-1.27-6.52-4.18-8.11-7.88ZM61,33.2c3.47-2.82,7.13-7,7.13-12.35V18.09h-29v2.76c0,5.31,3.67,9.53,7.13,12.35C32.65,37.83,21.76,54.32,21.76,67.77c0,9.14,7.81,16.56,17.4,16.56h29c9.6,0,17.4-7.42,17.4-16.56C85.56,54.32,74.68,37.83,61,33.2Z"/></g></g></svg>