<svg xmlns="http://www.w3.org/2000/svg" viewBox="0 0 34.28 34.21"><defs><style>.cls-1,.cls-2-suge{fill:#173458;}.cls-2-suge{stroke:#173458;stroke-miterlimit:10;stroke-width:0.72px;}</style></defs><title>Asset 2</title><g id="Layer_2" data-name="Layer 2"><g id="Capa_1" data-name="Capa 1"><path class="cls-1" d="M27.94,0a.78.78,0,0,1,.31.75c0,.38,0,.77,0,1.15s-.21.56-.52.56-.47-.2-.48-.56,0-.77,0-1.15a.82.82,0,0,1,.3-.75Z"/><path class="cls-2-suge" d="M30.5,16.73a1.09,1.09,0,0,1,.66,1.18c0,.32,0,.64,0,1,0,.84-.2,1.08-1.07,1.24,0,.24,0,.49,0,.74a1.66,1.66,0,0,1-1,1.51.57.57,0,0,0-.35.46,11.67,11.67,0,0,1-8.91,8.86A12.63,12.63,0,0,1,17,32c-2.27,0-4.55,0-6.82,0a1.5,1.5,0,0,0-.55.11l-4,1.6c-.79.31-1.18,0-1.19-.79,0-1.2,0-2.41,0-3.61a.57.57,0,0,0-.16-.39A11.55,11.55,0,0,1,.38,19.47C.63,14.53,3.12,11.05,7.65,9A11.45,11.45,0,0,1,12.42,8h1.17c.38,0,.59.19.59.5S14,9,13.6,9c-.91,0-1.82,0-2.71.12a10.59,10.59,0,0,0-8.26,5.66A11.09,11.09,0,0,0,5.08,28.31a.92.92,0,0,1,.35.78c0,1.19,0,2.38,0,3.63l.76-.28c1.1-.45,2.21-.9,3.32-1.33a1.64,1.64,0,0,1,.62-.09c2.43,0,4.86,0,7.29,0a10.91,10.91,0,0,0,10.31-8.15,2.74,2.74,0,0,0,.05-.28c-2.09-.24-2.21-.37-2.41-2.47l-.29-.06a.88.88,0,0,1-.75-.91c0-.5,0-1,0-1.49a1,1,0,0,1,.59-.89A4.48,4.48,0,0,0,24.06,15c-.37-.47-.75-.93-1.13-1.4a5.81,5.81,0,0,1-1.38-3.48c0-.1-.13-.23-.24-.28A11.11,11.11,0,0,0,17,9H16c-.4,0-.63-.19-.62-.49S15.63,8,16,8a13.61,13.61,0,0,1,5.44.8l.18,0c.06-.24.11-.48.18-.7a5.41,5.41,0,0,1,3.53-3.71c.38-.13.64,0,.76.25s0,.54-.4.68a4.42,4.42,0,0,0-3,3.49,4.77,4.77,0,0,0,1,4.07l.36.44a6.9,6.9,0,0,1,1.89,3.31h1.31v-.38c0-.59,0-1.19,0-1.78s0-.86-.59-1.13a1.85,1.85,0,0,1-.84-2.29,2,2,0,0,1,3.94.26,2,2,0,0,1-1.18,2.19.44.44,0,0,0-.33.51c0,.75,0,1.49,0,2.24v.38h1.3a7.22,7.22,0,0,1,2-3.38,5.14,5.14,0,0,0,1.41-3.61,4.66,4.66,0,0,0-4.55-4.62c-.13,0-.25,0-.37,0-.35,0-.54-.24-.53-.52a.51.51,0,0,1,.59-.46,6.22,6.22,0,0,1,2.44.53,5.55,5.55,0,0,1,3.4,5.85,6.18,6.18,0,0,1-1.59,3.47,15.92,15.92,0,0,0-1.14,1.46A11.16,11.16,0,0,0,30.5,16.73Zm-5.15,2.34h4.78V17.73H25.35Zm1,1c0,.29,0,.55,0,.81a.7.7,0,0,0,.69.64c.42,0,.85,0,1.27,0a.71.71,0,0,0,.71-.66c0-.26,0-.52,0-.79Zm.32-8.36a1,1,0,1,0,1-1A1,1,0,0,0,26.72,11.74Z"/><path class="cls-1" d="M14.74,19.55h6.31a.45.45,0,0,1,.41.45.44.44,0,0,1-.35.49,1.19,1.19,0,0,1-.33,0H8.7a2,2,0,0,1-.34,0,.48.48,0,0,1,.07-1,2.26,2.26,0,0,1,.37,0Z"/><path class="cls-1" d="M14.71,23.9H8.5A.49.49,0,0,1,8,23.42a.51.51,0,0,1,.5-.51c.1,0,.2,0,.3,0q5.94,0,11.89,0c.54,0,.79.15.79.49s-.24.5-.79.5Z"/><path class="cls-1" d="M13.13,16.18h4.53a.88.88,0,0,1,.54.2.46.46,0,0,1-.23.74,1.36,1.36,0,0,1-.4,0H8.5A.5.5,0,0,1,8,16.66a.49.49,0,0,1,.53-.47h4.61Z"/><path class="cls-1" d="M34.22,2.21a2.5,2.5,0,0,1-.27.43c-.3.33-.62.63-1,.94a.5.5,0,0,1-.76,0,.49.49,0,0,1,0-.73,13.05,13.05,0,0,1,1-1,.76.76,0,0,1,.57-.11C34,1.85,34.09,2.06,34.22,2.21Z"/><path class="cls-1" d="M23.43,3.34c-.09.12-.17.31-.31.36a.59.59,0,0,1-.52,0,12.48,12.48,0,0,1-1.16-1.14.42.42,0,0,1,0-.62.44.44,0,0,1,.64,0c.41.36.79.76,1.18,1.16C23.36,3.07,23.37,3.19,23.43,3.34Z"/></g></g></svg>