<svg xmlns="http://www.w3.org/2000/svg" viewBox="0 0 32.63 37.11"><defs><style>.cls-1{fill:#173458;}</style></defs><title>Asset 7</title><g id="Layer_2" data-name="Layer 2"><g id="Capa_1" data-name="Capa 1"><path class="cls-1" d="M10.91,18.25a10,10,0,0,1-3.67-4.1A9.89,9.89,0,0,1,14.8.12,10,10,0,0,1,26.37,9a9.91,9.91,0,0,1-8.61,10.7c-.89.13-1.8.11-2.7.17A13.73,13.73,0,0,0,2.91,30.22a22.12,22.12,0,0,0-.39,3.05,1.23,1.23,0,0,0,1.37,1.37H16.21a1.23,1.23,0,1,1,0,2.46H3.93A3.75,3.75,0,0,1,0,33.21a16.08,16.08,0,0,1,10.54-14.8ZM8.78,9.94A7.53,7.53,0,0,0,23.84,10,7.53,7.53,0,0,0,8.78,9.94Z" transform="translate(0 0)"/><path class="cls-1" d="M27,26.61h4.13a2.74,2.74,0,0,1,.5,0,1.23,1.23,0,0,1-.25,2.43c-1.29,0-2.58,0-3.88,0H27v4.2a1.26,1.26,0,1,1-2.51,0V29.08H20.22a1.24,1.24,0,1,1,0-2.47h4.27V22.39a1.26,1.26,0,1,1,2.51,0c0,1.37,0,2.73,0,4.09C27,26.51,27,26.53,27,26.61Z" transform="translate(0 0)"/></g></g></svg>