<svg xmlns="http://www.w3.org/2000/svg" viewBox="0 0 32.63 37.71"><defs><style>.cls-1{fill:#f4f4f6;}</style></defs><title>Asset 104</title><g id="Layer_2" data-name="Layer 2"><g id="Capa_1" data-name="Capa 1"><path class="cls-1" d="M10.91,18.55A10.08,10.08,0,1,1,17.76,20c-.89.14-1.8.11-2.7.18A13.79,13.79,0,0,0,2.91,30.71a23,23,0,0,0-.39,3.1A1.24,1.24,0,0,0,3.89,35.2H16.21a1.26,1.26,0,1,1,0,2.51H3.93a3.76,3.76,0,0,1-3.93-4,16.34,16.34,0,0,1,10.54-15ZM8.78,10.1a7.53,7.53,0,1,0,7.53-7.53A7.55,7.55,0,0,0,8.78,10.1Z"/><path class="cls-1" d="M27,27.05c1.39,0,2.76,0,4.13,0a2.07,2.07,0,0,1,.5,0,1.25,1.25,0,0,1-.25,2.47H27v4.26a1.26,1.26,0,1,1-2.51,0V29.56H20.22a1.26,1.26,0,1,1,0-2.5c1.27,0,2.53,0,3.8,0h.47V22.76a1.26,1.26,0,1,1,2.51,0c0,1.38,0,2.77,0,4.15C27,26.94,27,27,27,27.05Z"/></g></g></svg>