<svg xmlns="http://www.w3.org/2000/svg" viewBox="0 0 107.32 102.13">
<defs>
<style>.cls-2{fill:#fff;stroke:#fff;stroke-miterlimit:10;stroke-width:0.86px;}</style>
</defs>
<title>Asset 5</title>
<g id="Layer_2" data-name="Layer 2">
<g id="Capa_1" data-name="Capa 1">
<path fill="#444a99" d="M53.66,0c1.76,0,3.51.08,5.26.25s3.48.4,5.21.73,3.42.73,5.11,1.22,3.33,1,5,1.69S77.4,5.24,79,6,82,7.68,83.47,8.61s2.87,1.92,4.23,3A50.12,50.12,0,0,1,91.6,15q1.86,1.77,3.54,3.71t3.14,4Q99.74,24.79,101,27a50.2,50.2,0,0,1,2.25,4.53A48,48,0,0,1,105,36.24c.51,1.6.93,3.22,1.28,4.86a48.86,48.86,0,0,1,0,19.93c-.35,1.64-.77,3.26-1.28,4.86a48,48,0,0,1-1.78,4.72A50.2,50.2,0,0,1,101,75.14c-.83,1.47-1.73,2.91-2.7,4.3s-2,2.73-3.14,4S92.84,86,91.6,87.18s-2.54,2.3-3.9,3.36-2.77,2.06-4.23,3-3,1.78-4.52,2.57-3.13,1.51-4.76,2.15-3.27,1.2-5,1.68-3.39.9-5.11,1.22-3.46.57-5.21.74-3.5.24-5.26.24-3.51-.08-5.26-.24-3.49-.41-5.21-.74-3.43-.73-5.11-1.22-3.33-1-5-1.68-3.21-1.36-4.76-2.15-3.05-1.64-4.51-2.57-2.87-1.93-4.23-3-2.66-2.18-3.9-3.36-2.42-2.42-3.54-3.72S10,80.83,9,79.44a50.71,50.71,0,0,1-2.7-4.3Q5.1,72.92,4.08,70.61T2.31,65.89a48.54,48.54,0,0,1-2-9.82A48.86,48.86,0,0,1,1,41.1a48.26,48.26,0,0,1,1.28-4.86q.76-2.4,1.77-4.72T6.34,27A50.54,50.54,0,0,1,9,22.7q1.47-2.1,3.14-4c1.12-1.29,2.29-2.53,3.54-3.71a50.12,50.12,0,0,1,3.9-3.37q2-1.59,4.23-3T28.36,6q2.33-1.18,4.76-2.14c1.63-.64,3.28-1.21,5-1.69S41.47,1.31,43.19,1,46.65.41,48.4.25,51.9,0,53.66,0Z"/>
<path class="cls-2" d="M53.24,79.2H43.93c-2.41,0-3.7-1.2-3.69-3.47,0-2.49-.08-5,.15-7.48A8.43,8.43,0,0,1,48.73,61q4.62-.12,9.24,0a8.43,8.43,0,0,1,8.32,8c.06,2.32,0,4.64,0,7a3.12,3.12,0,0,1-3.44,3.24Zm9.58-3.29c0-2.51.1-5,0-7.39a5,5,0,0,0-4.85-4.27c-3,0-6.1-.06-9.15,0a5.11,5.11,0,0,0-4.3,2.43,6.5,6.5,0,0,0-.79,3.9c0,1.77,0,3.53,0,5.32h1.48v-.84c0-1.77,0-3.54,0-5.31,0-1.08.58-1.74,1.44-1.72S48,68.68,48,69.72c0,1.83,0,3.65,0,5.47v.7H59.13v-6c0-1.2.47-1.83,1.36-1.84s1.4.64,1.4,1.88v6Z"/>
<path class="cls-2" d="M28.77,61.94V57.05c0-1.55,0-3.09,0-4.64a1.42,1.42,0,1,1,2.82,0q0,4.31,0,8.61v.89h2c1.81,0,3.61,0,5.41.06a1.58,1.58,0,0,1,1.54,1.6,1.68,1.68,0,0,1-1.65,1.54c-.11,0-.21,0-.32,0-4.27,0-8.54,0-12.81,0a3.49,3.49,0,0,1-3.67-3.39c0-3.47,0-6.94,0-10.41.09-4.75,4.59-9.4,9.63-10a30.45,30.45,0,0,1,3.17-.16c3.42,0,6.84,0,10.27,0a12.15,12.15,0,0,1,6.33,1.68,1.63,1.63,0,0,1,.79,2.35,1.73,1.73,0,0,1-2.49.43,9.69,9.69,0,0,0-5.23-1.24c-3.87,0-7.74,0-11.61.08s-7.19,3.25-7.37,6.76-.09,6.73-.13,10.1c0,.4.14.62.59.61Z"/>
<path class="cls-2" d="M77,69.19a58.88,58.88,0,0,1,0-6c.15-1.39-1.12-3.34,1.38-4,2.47.75,1.18,2.68,1.34,4.08a54.74,54.74,0,0,1,0,5.88h1.93a1.83,1.83,0,0,0,.07-.45c0-3,0-6.09-.09-9.13-.1-2.87-3.13-5.73-6.16-5.79-3.95-.09-7.9-.06-11.85-.09a4.13,4.13,0,0,1-1.17-.16,1.55,1.55,0,0,1-1-1.62,1.69,1.69,0,0,1,1.52-1.42,4.53,4.53,0,0,1,.64,0c3.74,0,7.48,0,11.22,0,5.63,0,10.26,4.36,10.3,9.66,0,3,0,5.94,0,8.91A3.26,3.26,0,0,1,82,72.35c-1.4.09-2.81,0-4.21.05-2.58,0-5.15,0-7.72,0a4.13,4.13,0,0,1-1.32-.17,1.53,1.53,0,0,1-1-1.71,1.67,1.67,0,0,1,1.7-1.31c2.2,0,4.41,0,6.61,0Z"/>
<path class="cls-2" d="M48.39,31.22a8.8,8.8,0,0,1-17.57,0,8.6,8.6,0,0,1,8.78-8.24A8.58,8.58,0,0,1,48.39,31.22Zm-14.12,0a5.17,5.17,0,0,0,5.25,5.05A5.26,5.26,0,0,0,45,31.19a5.24,5.24,0,0,0-5.33-5A5.16,5.16,0,0,0,34.27,31.19Z"/>
<path class="cls-2" d="M61.49,41.2a8.09,8.09,0,0,1,16.16.62c-.21,3.8-4,7.19-8.17,7.11C65.05,48.85,61.39,45.31,61.49,41.2Zm8.06,4.48a4.37,4.37,0,1,0-4.65-4.39A4.53,4.53,0,0,0,69.55,45.68Z"/>
<path class="cls-2" d="M53.43,59.77a6.39,6.39,0,1,1,0-12.76,6.66,6.66,0,0,1,6.77,6.41A6.64,6.64,0,0,1,53.43,59.77Zm3.36-6.39a3.37,3.37,0,0,0-6.72,0,3.36,3.36,0,0,0,6.72,0Z"/>
</g>
</g>
</svg>